<?xml version="1.0"?>
<!-- Created by MetaPost 2.02 on 2025.02.04:2053 -->
<svg version="1.1" xmlns="http://www.w3.org/2000/svg" xmlns:xlink="http://www.w3.org/1999/xlink" width="580.735596" height="249.149734" viewBox="0 0 580.735596 249.149734">
<!-- Original BoundingBox: -374.022308 -2.713654 206.713287 246.436081 -->
  <defs>
    <g transform="scale(0.011955,0.011955)" id="GLYPHec-lmr12_40">
      <path style="fill-rule: evenodd;" d="M325.000000 243.000000C325.000000 240.000000,325.000000 238.000000,308.000000 221.000000C208.000000 120.000000,152.000000 -45.000000,152.000000 -249.000000C152.000000 -443.000000,199.000000 -610.000000,315.000000 -728.000000C325.000000 -737.000000,325.000000 -739.000000,325.000000 -742.000000C325.000000 -748.000000,320.000000 -750.000000,316.000000 -750.000000C303.000000 -750.000000,221.000000 -678.000000,172.000000 -580.000000C121.000000 -479.000000,98.000000 -372.000000,98.000000 -249.000000C98.000000 -160.000000,112.000000 -41.000000,164.000000 66.000000C223.000000 186.000000,305.000000 251.000000,316.000000 251.000000C320.000000 251.000000,325.000000 249.000000,325.000000 243.000000"></path>
    </g>
    <g transform="scale(0.011955,0.011955)" id="GLYPHec-lmr12_41">
      <path style="fill-rule: evenodd;" d="M282.000000 -249.000000C282.000000 -325.000000,272.000000 -449.000000,216.000000 -565.000000C157.000000 -685.000000,75.000000 -750.000000,64.000000 -750.000000C60.000000 -750.000000,55.000000 -748.000000,55.000000 -742.000000C55.000000 -739.000000,55.000000 -737.000000,72.000000 -720.000000C172.000000 -619.000000,228.000000 -454.000000,228.000000 -250.000000C228.000000 -56.000000,181.000000 111.000000,65.000000 229.000000C55.000000 238.000000,55.000000 240.000000,55.000000 243.000000C55.000000 249.000000,60.000000 251.000000,64.000000 251.000000C77.000000 251.000000,159.000000 179.000000,208.000000 81.000000C259.000000 -21.000000,282.000000 -129.000000,282.000000 -249.000000"></path>
    </g>
    <g transform="scale(0.011955,0.011955)" id="GLYPHec-lmr12_48">
      <path style="fill-rule: evenodd;" d="M448.000000 -320.000000C448.000000 -403.000000,443.000000 -484.000000,407.000000 -560.000000C366.000000 -643.000000,294.000000 -665.000000,245.000000 -665.000000C187.000000 -665.000000,116.000000 -636.000000,79.000000 -553.000000C51.000000 -490.000000,41.000000 -428.000000,41.000000 -320.000000C41.000000 -223.000000,48.000000 -150.000000,84.000000 -79.000000C123.000000 -3.000000,192.000000 21.000000,244.000000 21.000000C331.000000 21.000000,381.000000 -31.000000,410.000000 -89.000000C446.000000 -164.000000,448.000000 -262.000000,448.000000 -320.000000M372.000000 -332.000000C372.000000 -265.000000,372.000000 -189.000000,361.000000 -128.000000C342.000000 -18.000000,279.000000 1.000000,244.000000 1.000000C212.000000 1.000000,147.000000 -17.000000,128.000000 -126.000000C117.000000 -186.000000,117.000000 -262.000000,117.000000 -332.000000C117.000000 -414.000000,117.000000 -488.000000,133.000000 -547.000000C150.000000 -614.000000,201.000000 -645.000000,244.000000 -645.000000C282.000000 -645.000000,340.000000 -622.000000,359.000000 -536.000000C372.000000 -479.000000,372.000000 -400.000000,372.000000 -332.000000"></path>
    </g>
    <g transform="scale(0.011955,0.011955)" id="GLYPHec-lmr12_49">
      <path style="fill-rule: evenodd;" d="M410.000000 -0.000000L410.000000 -29.000000L379.000000 -29.000000C291.000000 -29.000000,288.000000 -41.000000,288.000000 -77.000000L288.000000 -641.000000C288.000000 -664.000000,288.000000 -665.000000,268.000000 -665.000000C244.000000 -638.000000,194.000000 -601.000000,91.000000 -601.000000L91.000000 -572.000000C114.000000 -572.000000,164.000000 -572.000000,219.000000 -598.000000L219.000000 -77.000000C219.000000 -41.000000,216.000000 -29.000000,128.000000 -29.000000L97.000000 -29.000000L97.000000 -0.000000C124.000000 -2.000000,221.000000 -2.000000,254.000000 -2.000000C287.000000 -2.000000,383.000000 -2.000000,410.000000 -0.000000"></path>
    </g>
    <g transform="scale(0.011955,0.011955)" id="GLYPHec-lmr12_50">
      <path style="fill-rule: evenodd;" d="M440.000000 -168.000000L418.000000 -168.000000C415.000000 -151.000000,407.000000 -96.000000,397.000000 -80.000000C390.000000 -71.000000,333.000000 -71.000000,303.000000 -71.000000L118.000000 -71.000000C145.000000 -94.000000,206.000000 -158.000000,232.000000 -182.000000C384.000000 -322.000000,440.000000 -374.000000,440.000000 -473.000000C440.000000 -588.000000,349.000000 -665.000000,233.000000 -665.000000C117.000000 -665.000000,49.000000 -566.000000,49.000000 -480.000000C49.000000 -429.000000,93.000000 -429.000000,96.000000 -429.000000C117.000000 -429.000000,143.000000 -444.000000,143.000000 -476.000000C143.000000 -504.000000,124.000000 -523.000000,96.000000 -523.000000C87.000000 -523.000000,85.000000 -523.000000,82.000000 -522.000000C101.000000 -590.000000,155.000000 -636.000000,220.000000 -636.000000C305.000000 -636.000000,357.000000 -565.000000,357.000000 -473.000000C357.000000 -388.000000,308.000000 -314.000000,251.000000 -250.000000L49.000000 -24.000000L49.000000 -0.000000L414.000000 -0.000000"></path>
    </g>
    <g transform="scale(0.011955,0.011955)" id="GLYPHec-lmr12_51">
      <path style="fill-rule: evenodd;" d="M448.000000 -171.000000C448.000000 -263.000000,374.000000 -335.000000,278.000000 -352.000000C365.000000 -377.000000,421.000000 -450.000000,421.000000 -528.000000C421.000000 -607.000000,339.000000 -665.000000,242.000000 -665.000000C142.000000 -665.000000,68.000000 -604.000000,68.000000 -531.000000C68.000000 -491.000000,99.000000 -483.000000,114.000000 -483.000000C135.000000 -483.000000,159.000000 -498.000000,159.000000 -528.000000C159.000000 -560.000000,135.000000 -574.000000,113.000000 -574.000000C107.000000 -574.000000,105.000000 -574.000000,102.000000 -573.000000C140.000000 -641.000000,234.000000 -641.000000,239.000000 -641.000000C272.000000 -641.000000,337.000000 -626.000000,337.000000 -528.000000C337.000000 -509.000000,334.000000 -453.000000,305.000000 -410.000000C275.000000 -366.000000,241.000000 -363.000000,214.000000 -362.000000L184.000000 -359.000000C167.000000 -358.000000,163.000000 -357.000000,163.000000 -348.000000C163.000000 -338.000000,168.000000 -338.000000,186.000000 -338.000000L232.000000 -338.000000C317.000000 -338.000000,355.000000 -268.000000,355.000000 -172.000000C355.000000 -41.000000,287.000000 -6.000000,238.000000 -6.000000C190.000000 -6.000000,108.000000 -29.000000,79.000000 -95.000000C111.000000 -90.000000,140.000000 -108.000000,140.000000 -144.000000C140.000000 -173.000000,119.000000 -193.000000,91.000000 -193.000000C67.000000 -193.000000,41.000000 -179.000000,41.000000 -141.000000C41.000000 -52.000000,130.000000 21.000000,241.000000 21.000000C360.000000 21.000000,448.000000 -70.000000,448.000000 -171.000000"></path>
    </g>
    <g transform="scale(0.011955,0.011955)" id="GLYPHec-lmr12_52">
      <path style="fill-rule: evenodd;" d="M462.000000 -167.000000L462.000000 -196.000000L361.000000 -196.000000L361.000000 -651.000000C361.000000 -670.000000,361.000000 -675.000000,347.000000 -675.000000C339.000000 -675.000000,336.000000 -675.000000,328.000000 -663.000000L27.000000 -196.000000L27.000000 -167.000000L290.000000 -167.000000L290.000000 -76.000000C290.000000 -39.000000,288.000000 -29.000000,215.000000 -29.000000L195.000000 -29.000000L195.000000 -0.000000C218.000000 -2.000000,297.000000 -2.000000,325.000000 -2.000000C353.000000 -2.000000,433.000000 -2.000000,456.000000 -0.000000L456.000000 -29.000000L436.000000 -29.000000C364.000000 -29.000000,361.000000 -39.000000,361.000000 -76.000000L361.000000 -167.000000M295.000000 -196.000000L52.000000 -196.000000L295.000000 -573.000000"></path>
    </g>
    <g transform="scale(0.011955,0.011955)" id="GLYPHec-lmr12_53">
      <path style="fill-rule: evenodd;" d="M440.000000 -201.000000C440.000000 -320.000000,360.000000 -419.000000,255.000000 -419.000000C198.000000 -419.000000,154.000000 -394.000000,128.000000 -366.000000L128.000000 -573.000000C171.000000 -559.000000,206.000000 -558.000000,217.000000 -558.000000C330.000000 -558.000000,402.000000 -641.000000,402.000000 -655.000000C402.000000 -659.000000,400.000000 -664.000000,394.000000 -664.000000C394.000000 -664.000000,390.000000 -664.000000,381.000000 -660.000000C325.000000 -636.000000,277.000000 -633.000000,251.000000 -633.000000C185.000000 -633.000000,138.000000 -653.000000,119.000000 -661.000000C112.000000 -664.000000,109.000000 -664.000000,109.000000 -664.000000C101.000000 -664.000000,101.000000 -658.000000,101.000000 -642.000000L101.000000 -345.000000C101.000000 -327.000000,101.000000 -321.000000,113.000000 -321.000000C118.000000 -321.000000,119.000000 -322.000000,129.000000 -334.000000C157.000000 -375.000000,204.000000 -399.000000,254.000000 -399.000000C307.000000 -399.000000,333.000000 -350.000000,341.000000 -333.000000C358.000000 -294.000000,359.000000 -245.000000,359.000000 -207.000000C359.000000 -169.000000,359.000000 -112.000000,331.000000 -67.000000C309.000000 -31.000000,270.000000 -6.000000,226.000000 -6.000000C160.000000 -6.000000,95.000000 -51.000000,77.000000 -124.000000C82.000000 -122.000000,88.000000 -121.000000,93.000000 -121.000000C110.000000 -121.000000,137.000000 -131.000000,137.000000 -165.000000C137.000000 -193.000000,118.000000 -209.000000,93.000000 -209.000000C75.000000 -209.000000,49.000000 -200.000000,49.000000 -161.000000C49.000000 -76.000000,117.000000 21.000000,228.000000 21.000000C341.000000 21.000000,440.000000 -74.000000,440.000000 -201.000000"></path>
    </g>
    <g transform="scale(0.011955,0.011955)" id="GLYPHec-lmr12_54">
      <path style="fill-rule: evenodd;" d="M448.000000 -204.000000C448.000000 -337.000000,355.000000 -426.000000,255.000000 -426.000000C166.000000 -426.000000,133.000000 -349.000000,123.000000 -321.000000L123.000000 -348.000000C123.000000 -601.000000,246.000000 -641.000000,300.000000 -641.000000C336.000000 -641.000000,372.000000 -630.000000,391.000000 -600.000000C379.000000 -600.000000,341.000000 -600.000000,341.000000 -559.000000C341.000000 -537.000000,356.000000 -518.000000,382.000000 -518.000000C407.000000 -518.000000,424.000000 -533.000000,424.000000 -562.000000C424.000000 -614.000000,386.000000 -665.000000,299.000000 -665.000000C173.000000 -665.000000,41.000000 -536.000000,41.000000 -316.000000C41.000000 -41.000000,161.000000 21.000000,246.000000 21.000000C355.000000 21.000000,448.000000 -74.000000,448.000000 -204.000000M366.000000 -205.000000C366.000000 -154.000000,366.000000 -109.000000,347.000000 -71.000000C322.000000 -23.000000,286.000000 -6.000000,246.000000 -6.000000C183.000000 -6.000000,153.000000 -62.000000,144.000000 -83.000000C135.000000 -109.000000,125.000000 -158.000000,125.000000 -228.000000C125.000000 -307.000000,161.000000 -406.000000,251.000000 -406.000000C306.000000 -406.000000,335.000000 -369.000000,350.000000 -335.000000C366.000000 -298.000000,366.000000 -248.000000,366.000000 -205.000000"></path>
    </g>
    <g transform="scale(0.011955,0.011955)" id="GLYPHec-lmr12_55">
      <path style="fill-rule: evenodd;" d="M475.000000 -621.000000L475.000000 -644.000000L234.000000 -644.000000C113.000000 -644.000000,111.000000 -657.000000,107.000000 -676.000000L85.000000 -676.000000L54.000000 -476.000000L76.000000 -476.000000C79.000000 -494.000000,88.000000 -556.000000,101.000000 -567.000000C109.000000 -573.000000,184.000000 -573.000000,198.000000 -573.000000L410.000000 -573.000000L304.000000 -421.000000C277.000000 -382.000000,176.000000 -218.000000,176.000000 -30.000000C176.000000 -19.000000,176.000000 21.000000,217.000000 21.000000C259.000000 21.000000,259.000000 -18.000000,259.000000 -31.000000L259.000000 -81.000000C259.000000 -230.000000,283.000000 -346.000000,330.000000 -413.000000"></path>
    </g>
    <g transform="scale(0.011955,0.011955)" id="GLYPHec-lmr12_56">
      <path style="fill-rule: evenodd;" d="M448.000000 -166.000000C448.000000 -268.000000,376.000000 -313.000000,298.000000 -361.000000C348.000000 -388.000000,421.000000 -434.000000,421.000000 -518.000000C421.000000 -605.000000,337.000000 -665.000000,245.000000 -665.000000C146.000000 -665.000000,68.000000 -592.000000,68.000000 -501.000000C68.000000 -467.000000,78.000000 -433.000000,106.000000 -399.000000C117.000000 -386.000000,118.000000 -385.000000,188.000000 -336.000000C91.000000 -291.000000,41.000000 -224.000000,41.000000 -151.000000C41.000000 -45.000000,142.000000 21.000000,244.000000 21.000000C355.000000 21.000000,448.000000 -61.000000,448.000000 -166.000000M380.000000 -517.000000C380.000000 -456.000000,336.000000 -407.000000,278.000000 -375.000000L162.000000 -451.000000C149.000000 -460.000000,109.000000 -486.000000,109.000000 -535.000000C109.000000 -600.000000,177.000000 -641.000000,244.000000 -641.000000C316.000000 -641.000000,380.000000 -589.000000,380.000000 -517.000000M402.000000 -134.000000C402.000000 -58.000000,325.000000 -6.000000,245.000000 -6.000000C160.000000 -6.000000,87.000000 -68.000000,87.000000 -151.000000C87.000000 -229.000000,144.000000 -292.000000,209.000000 -322.000000L330.000000 -243.000000C356.000000 -226.000000,402.000000 -195.000000,402.000000 -134.000000"></path>
    </g>
    <g transform="scale(0.011955,0.011955)" id="GLYPHec-lmr12_57">
      <path style="fill-rule: evenodd;" d="M448.000000 -329.000000C448.000000 -598.000000,336.000000 -665.000000,248.000000 -665.000000C138.000000 -665.000000,41.000000 -573.000000,41.000000 -441.000000C41.000000 -309.000000,134.000000 -219.000000,234.000000 -219.000000C308.000000 -219.000000,346.000000 -273.000000,366.000000 -324.000000L366.000000 -291.000000C366.000000 -55.000000,261.000000 -6.000000,201.000000 -6.000000C177.000000 -6.000000,124.000000 -9.000000,99.000000 -44.000000L105.000000 -44.000000C112.000000 -42.000000,148.000000 -48.000000,148.000000 -85.000000C148.000000 -107.000000,133.000000 -126.000000,107.000000 -126.000000C81.000000 -126.000000,65.000000 -109.000000,65.000000 -83.000000C65.000000 -21.000000,115.000000 21.000000,202.000000 21.000000C327.000000 21.000000,448.000000 -112.000000,448.000000 -329.000000M364.000000 -419.000000C364.000000 -335.000000,326.000000 -239.000000,238.000000 -239.000000C175.000000 -239.000000,148.000000 -290.000000,139.000000 -309.000000C123.000000 -347.000000,123.000000 -395.000000,123.000000 -440.000000C123.000000 -496.000000,123.000000 -544.000000,149.000000 -585.000000C167.000000 -612.000000,194.000000 -641.000000,248.000000 -641.000000C305.000000 -641.000000,334.000000 -591.000000,344.000000 -568.000000C364.000000 -519.000000,364.000000 -434.000000,364.000000 -419.000000"></path>
    </g>
    <g transform="scale(0.011955,0.011955)" id="GLYPHec-lmr12_71">
      <path style="fill-rule: evenodd;" d="M719.000000 -242.000000L719.000000 -271.000000C693.000000 -269.000000,624.000000 -269.000000,594.000000 -269.000000C562.000000 -269.000000,475.000000 -269.000000,448.000000 -271.000000L448.000000 -242.000000L479.000000 -242.000000C567.000000 -242.000000,570.000000 -230.000000,570.000000 -194.000000L570.000000 -130.000000C570.000000 -16.000000,439.000000 -8.000000,413.000000 -8.000000C334.000000 -8.000000,147.000000 -56.000000,147.000000 -342.000000C147.000000 -631.000000,336.000000 -675.000000,406.000000 -675.000000C493.000000 -675.000000,597.000000 -612.000000,623.000000 -435.000000C625.000000 -424.000000,625.000000 -421.000000,637.000000 -421.000000C651.000000 -421.000000,651.000000 -424.000000,651.000000 -444.000000L651.000000 -681.000000C651.000000 -699.000000,651.000000 -704.000000,641.000000 -704.000000C635.000000 -704.000000,634.000000 -702.000000,628.000000 -692.000000L579.000000 -613.000000C550.000000 -649.000000,489.000000 -704.000000,394.000000 -704.000000C213.000000 -704.000000,54.000000 -547.000000,54.000000 -342.000000C54.000000 -135.000000,213.000000 21.000000,395.000000 21.000000C466.000000 21.000000,547.000000 -2.000000,584.000000 -66.000000C602.000000 -34.000000,635.000000 -1.000000,643.000000 -1.000000C651.000000 -1.000000,651.000000 -7.000000,651.000000 -23.000000L651.000000 -198.000000C651.000000 -237.000000,655.000000 -242.000000,719.000000 -242.000000"></path>
    </g>
    <g transform="scale(0.011955,0.011955)" id="GLYPHec-lmr12_79">
      <path style="fill-rule: evenodd;" d="M707.000000 -339.000000C707.000000 -546.000000,555.000000 -704.000000,381.000000 -704.000000C203.000000 -704.000000,54.000000 -544.000000,54.000000 -339.000000C54.000000 -136.000000,205.000000 21.000000,380.000000 21.000000C559.000000 21.000000,707.000000 -138.000000,707.000000 -339.000000M614.000000 -354.000000C614.000000 -94.000000,478.000000 -2.000000,381.000000 -2.000000C279.000000 -2.000000,147.000000 -98.000000,147.000000 -354.000000C147.000000 -599.000000,286.000000 -682.000000,380.000000 -682.000000C479.000000 -682.000000,614.000000 -596.000000,614.000000 -354.000000"></path>
    </g>
    <g transform="scale(0.011955,0.011955)" id="GLYPHec-lmr12_83">
      <path style="fill-rule: evenodd;" d="M489.000000 -184.000000C489.000000 -245.000000,466.000000 -290.000000,439.000000 -323.000000C402.000000 -368.000000,357.000000 -379.000000,318.000000 -389.000000L208.000000 -417.000000C157.000000 -430.000000,112.000000 -480.000000,112.000000 -544.000000C112.000000 -614.000000,168.000000 -677.000000,246.000000 -677.000000C410.000000 -677.000000,432.000000 -515.000000,438.000000 -472.000000C440.000000 -460.000000,440.000000 -456.000000,450.000000 -456.000000C461.000000 -456.000000,461.000000 -461.000000,461.000000 -479.000000L461.000000 -681.000000C461.000000 -699.000000,461.000000 -704.000000,451.000000 -704.000000C448.000000 -704.000000,444.000000 -704.000000,437.000000 -691.000000L404.000000 -630.000000C356.000000 -692.000000,290.000000 -704.000000,246.000000 -704.000000C135.000000 -704.000000,54.000000 -615.000000,54.000000 -513.000000C54.000000 -465.000000,71.000000 -421.000000,108.000000 -381.000000C143.000000 -342.000000,178.000000 -333.000000,249.000000 -315.000000C284.000000 -307.000000,339.000000 -293.000000,353.000000 -287.000000C400.000000 -264.000000,431.000000 -210.000000,431.000000 -154.000000C431.000000 -79.000000,378.000000 -8.000000,295.000000 -8.000000C250.000000 -8.000000,188.000000 -19.000000,139.000000 -62.000000C81.000000 -114.000000,77.000000 -186.000000,76.000000 -219.000000C75.000000 -227.000000,65.000000 -227.000000,65.000000 -227.000000C54.000000 -227.000000,54.000000 -222.000000,54.000000 -204.000000L54.000000 -2.000000C54.000000 16.000000,54.000000 21.000000,64.000000 21.000000C70.000000 21.000000,71.000000 19.000000,78.000000 7.000000L111.000000 -53.000000C147.000000 -13.000000,210.000000 21.000000,296.000000 21.000000C408.000000 21.000000,489.000000 -74.000000,489.000000 -184.000000"></path>
    </g>
    <g transform="scale(0.011955,0.011955)" id="GLYPHec-lmr12_97">
      <path style="fill-rule: evenodd;" d="M474.000000 -89.000000L474.000000 -145.000000L452.000000 -145.000000L452.000000 -89.000000C452.000000 -32.000000,428.000000 -24.000000,414.000000 -24.000000C376.000000 -24.000000,376.000000 -77.000000,376.000000 -92.000000L376.000000 -267.000000C376.000000 -321.000000,376.000000 -361.000000,332.000000 -400.000000C297.000000 -432.000000,252.000000 -446.000000,208.000000 -446.000000C126.000000 -446.000000,63.000000 -392.000000,63.000000 -327.000000C63.000000 -298.000000,82.000000 -284.000000,105.000000 -284.000000C129.000000 -284.000000,146.000000 -301.000000,146.000000 -325.000000C146.000000 -366.000000,110.000000 -366.000000,95.000000 -366.000000C118.000000 -408.000000,166.000000 -426.000000,206.000000 -426.000000C252.000000 -426.000000,311.000000 -388.000000,311.000000 -298.000000L311.000000 -258.000000C110.000000 -255.000000,34.000000 -171.000000,34.000000 -94.000000C34.000000 -15.000000,126.000000 10.000000,187.000000 10.000000C253.000000 10.000000,298.000000 -30.000000,317.000000 -78.000000C321.000000 -31.000000,352.000000 5.000000,395.000000 5.000000C416.000000 5.000000,474.000000 -9.000000,474.000000 -89.000000M311.000000 -141.000000C311.000000 -43.000000,238.000000 -10.000000,195.000000 -10.000000C146.000000 -10.000000,105.000000 -46.000000,105.000000 -94.000000C105.000000 -226.000000,275.000000 -238.000000,311.000000 -240.000000"></path>
    </g>
    <g transform="scale(0.011955,0.011955)" id="GLYPHec-lmr12_98">
      <path style="fill-rule: evenodd;" d="M508.000000 -216.000000C508.000000 -343.000000,414.000000 -441.000000,303.000000 -441.000000C248.000000 -441.000000,201.000000 -416.000000,167.000000 -374.000000L167.000000 -694.000000L28.000000 -683.000000L28.000000 -654.000000C96.000000 -654.000000,104.000000 -647.000000,104.000000 -598.000000L104.000000 -0.000000L126.000000 -0.000000L162.000000 -65.000000C185.000000 -28.000000,228.000000 10.000000,292.000000 10.000000C407.000000 10.000000,508.000000 -87.000000,508.000000 -216.000000M432.000000 -217.000000C432.000000 -150.000000,422.000000 -108.000000,398.000000 -72.000000C378.000000 -41.000000,338.000000 -10.000000,288.000000 -10.000000C234.000000 -10.000000,199.000000 -45.000000,182.000000 -72.000000C169.000000 -93.000000,169.000000 -97.000000,169.000000 -114.000000L169.000000 -320.000000C169.000000 -338.000000,169.000000 -340.000000,180.000000 -356.000000C204.000000 -392.000000,248.000000 -421.000000,297.000000 -421.000000C327.000000 -421.000000,432.000000 -409.000000,432.000000 -217.000000"></path>
    </g>
    <g transform="scale(0.011955,0.011955)" id="GLYPHec-lmr12_99">
      <path style="fill-rule: evenodd;" d="M406.000000 -119.000000C406.000000 -128.000000,399.000000 -128.000000,396.000000 -128.000000C387.000000 -128.000000,386.000000 -125.000000,383.000000 -113.000000C361.000000 -42.000000,307.000000 -12.000000,253.000000 -12.000000C192.000000 -12.000000,111.000000 -65.000000,111.000000 -217.000000C111.000000 -383.000000,196.000000 -424.000000,246.000000 -424.000000C284.000000 -424.000000,339.000000 -409.000000,362.000000 -370.000000C350.000000 -370.000000,313.000000 -370.000000,313.000000 -329.000000C313.000000 -305.000000,330.000000 -288.000000,354.000000 -288.000000C377.000000 -288.000000,396.000000 -302.000000,396.000000 -331.000000C396.000000 -398.000000,326.000000 -446.000000,245.000000 -446.000000C128.000000 -446.000000,35.000000 -342.000000,35.000000 -216.000000C35.000000 -88.000000,131.000000 10.000000,244.000000 10.000000C376.000000 10.000000,406.000000 -110.000000,406.000000 -119.000000"></path>
    </g>
    <g transform="scale(0.011955,0.011955)" id="GLYPHec-lmr12_100">
      <path style="fill-rule: evenodd;" d="M515.000000 -0.000000L515.000000 -29.000000C447.000000 -29.000000,439.000000 -36.000000,439.000000 -85.000000L439.000000 -694.000000L300.000000 -683.000000L300.000000 -654.000000C368.000000 -654.000000,376.000000 -647.000000,376.000000 -598.000000L376.000000 -377.000000C355.000000 -406.000000,312.000000 -441.000000,251.000000 -441.000000C135.000000 -441.000000,35.000000 -343.000000,35.000000 -215.000000C35.000000 -88.000000,130.000000 10.000000,240.000000 10.000000C316.000000 10.000000,360.000000 -40.000000,374.000000 -59.000000L374.000000 10.000000M374.000000 -117.000000C374.000000 -99.000000,374.000000 -96.000000,360.000000 -74.000000C336.000000 -39.000000,295.000000 -10.000000,245.000000 -10.000000C219.000000 -10.000000,111.000000 -20.000000,111.000000 -214.000000C111.000000 -286.000000,123.000000 -326.000000,145.000000 -359.000000C165.000000 -390.000000,205.000000 -421.000000,255.000000 -421.000000C317.000000 -421.000000,352.000000 -376.000000,362.000000 -360.000000C374.000000 -343.000000,374.000000 -341.000000,374.000000 -323.000000"></path>
    </g>
    <g transform="scale(0.011955,0.011955)" id="GLYPHec-lmr12_101">
      <path style="fill-rule: evenodd;" d="M407.000000 -119.000000C407.000000 -125.000000,402.000000 -129.000000,396.000000 -129.000000C388.000000 -129.000000,386.000000 -124.000000,384.000000 -119.000000C358.000000 -35.000000,291.000000 -12.000000,249.000000 -12.000000C207.000000 -12.000000,106.000000 -40.000000,106.000000 -213.000000L106.000000 -232.000000L383.000000 -232.000000C405.000000 -232.000000,407.000000 -232.000000,407.000000 -251.000000C407.000000 -352.000000,353.000000 -446.000000,232.000000 -446.000000C118.000000 -446.000000,30.000000 -343.000000,30.000000 -219.000000C30.000000 -87.000000,132.000000 10.000000,243.000000 10.000000C362.000000 10.000000,407.000000 -98.000000,407.000000 -119.000000M345.000000 -251.000000L107.000000 -251.000000C115.000000 -408.000000,203.000000 -426.000000,231.000000 -426.000000C338.000000 -426.000000,344.000000 -285.000000,345.000000 -251.000000"></path>
    </g>
    <g transform="scale(0.011955,0.011955)" id="GLYPHec-lmr12_108">
      <path style="fill-rule: evenodd;" d="M248.000000 -0.000000L248.000000 -29.000000C184.000000 -29.000000,172.000000 -29.000000,172.000000 -74.000000L172.000000 -694.000000L33.000000 -683.000000L33.000000 -654.000000C101.000000 -654.000000,109.000000 -647.000000,109.000000 -598.000000L109.000000 -74.000000C109.000000 -29.000000,98.000000 -29.000000,33.000000 -29.000000L33.000000 -0.000000C61.000000 -2.000000,110.000000 -2.000000,140.000000 -2.000000C170.000000 -2.000000,220.000000 -2.000000,248.000000 -0.000000"></path>
    </g>
    <g transform="scale(0.011955,0.011955)" id="GLYPHec-lmr12_109">
      <path style="fill-rule: evenodd;" d="M793.000000 -0.000000L793.000000 -29.000000C743.000000 -29.000000,718.000000 -29.000000,717.000000 -59.000000L717.000000 -243.000000C717.000000 -336.000000,717.000000 -364.000000,694.000000 -396.000000C665.000000 -435.000000,618.000000 -441.000000,584.000000 -441.000000C501.000000 -441.000000,459.000000 -381.000000,443.000000 -342.000000C429.000000 -419.000000,375.000000 -441.000000,312.000000 -441.000000C215.000000 -441.000000,177.000000 -358.000000,169.000000 -338.000000L168.000000 -338.000000L168.000000 -441.000000L32.000000 -430.000000L32.000000 -401.000000C100.000000 -401.000000,108.000000 -394.000000,108.000000 -345.000000L108.000000 -74.000000C108.000000 -29.000000,97.000000 -29.000000,32.000000 -29.000000L32.000000 -0.000000C58.000000 -2.000000,112.000000 -2.000000,140.000000 -2.000000C169.000000 -2.000000,223.000000 -2.000000,249.000000 -0.000000L249.000000 -29.000000C185.000000 -29.000000,173.000000 -29.000000,173.000000 -74.000000L173.000000 -260.000000C173.000000 -365.000000,242.000000 -421.000000,304.000000 -421.000000C366.000000 -421.000000,380.000000 -370.000000,380.000000 -309.000000L380.000000 -74.000000C380.000000 -29.000000,369.000000 -29.000000,304.000000 -29.000000L304.000000 -0.000000C330.000000 -2.000000,384.000000 -2.000000,412.000000 -2.000000C441.000000 -2.000000,495.000000 -2.000000,521.000000 -0.000000L521.000000 -29.000000C457.000000 -29.000000,445.000000 -29.000000,445.000000 -74.000000L445.000000 -260.000000C445.000000 -365.000000,514.000000 -421.000000,576.000000 -421.000000C638.000000 -421.000000,652.000000 -370.000000,652.000000 -309.000000L652.000000 -74.000000C652.000000 -29.000000,641.000000 -29.000000,576.000000 -29.000000L576.000000 -0.000000C602.000000 -2.000000,656.000000 -2.000000,684.000000 -2.000000C713.000000 -2.000000,767.000000 -2.000000,793.000000 -0.000000"></path>
    </g>
    <g transform="scale(0.011955,0.011955)" id="GLYPHec-lmr12_111">
      <path style="fill-rule: evenodd;" d="M459.000000 -214.000000C459.000000 -343.000000,361.000000 -446.000000,245.000000 -446.000000C125.000000 -446.000000,30.000000 -340.000000,30.000000 -214.000000C30.000000 -86.000000,130.000000 10.000000,244.000000 10.000000C362.000000 10.000000,459.000000 -88.000000,459.000000 -214.000000M383.000000 -223.000000C383.000000 -188.000000,383.000000 -126.000000,357.000000 -79.000000C329.000000 -31.000000,283.000000 -12.000000,245.000000 -12.000000C208.000000 -12.000000,163.000000 -28.000000,134.000000 -77.000000C107.000000 -122.000000,106.000000 -181.000000,106.000000 -223.000000C106.000000 -261.000000,106.000000 -322.000000,137.000000 -367.000000C165.000000 -410.000000,209.000000 -426.000000,244.000000 -426.000000C283.000000 -426.000000,325.000000 -408.000000,352.000000 -369.000000C383.000000 -323.000000,383.000000 -260.000000,383.000000 -223.000000"></path>
    </g>
    <g transform="scale(0.011955,0.011955)" id="GLYPHec-lmr12_114">
      <path style="fill-rule: evenodd;" d="M353.000000 -383.000000C353.000000 -413.000000,326.000000 -441.000000,283.000000 -441.000000C198.000000 -441.000000,169.000000 -349.000000,163.000000 -330.000000L162.000000 -330.000000L162.000000 -441.000000L28.000000 -430.000000L28.000000 -401.000000C96.000000 -401.000000,104.000000 -394.000000,104.000000 -345.000000L104.000000 -74.000000C104.000000 -29.000000,93.000000 -29.000000,28.000000 -29.000000L28.000000 -0.000000C56.000000 -2.000000,111.000000 -2.000000,141.000000 -2.000000C168.000000 -2.000000,239.000000 -2.000000,262.000000 -0.000000L262.000000 -29.000000L242.000000 -29.000000C169.000000 -29.000000,167.000000 -40.000000,167.000000 -76.000000L167.000000 -233.000000C167.000000 -330.000000,207.000000 -421.000000,284.000000 -421.000000C292.000000 -421.000000,294.000000 -421.000000,298.000000 -420.000000C290.000000 -416.000000,274.000000 -410.000000,274.000000 -383.000000C274.000000 -354.000000,297.000000 -343.000000,313.000000 -343.000000C333.000000 -343.000000,353.000000 -356.000000,353.000000 -383.000000"></path>
    </g>
    <g transform="scale(0.011955,0.011955)" id="GLYPHec-lmr12_116">
      <path style="fill-rule: evenodd;" d="M326.000000 -124.000000L326.000000 -181.000000L304.000000 -181.000000L304.000000 -126.000000C304.000000 -54.000000,275.000000 -12.000000,236.000000 -12.000000C168.000000 -12.000000,168.000000 -105.000000,168.000000 -122.000000L168.000000 -402.000000L309.000000 -402.000000L309.000000 -431.000000L168.000000 -431.000000L168.000000 -615.000000L146.000000 -615.000000C145.000000 -521.000000,109.000000 -425.000000,18.000000 -422.000000L18.000000 -402.000000L103.000000 -402.000000L103.000000 -124.000000C103.000000 -13.000000,177.000000 10.000000,230.000000 10.000000C293.000000 10.000000,326.000000 -52.000000,326.000000 -124.000000"></path>
    </g>
  </defs>
  <path d="M17.000641 246.000000L221.000275 246.000000L221.000275 42.000366L17.000641 42.000366Z" style="stroke:rgb(69.999695%,69.999695%,100.000000%); stroke-width: 2.039993;fill: rgb(69.999695%,69.999695%,100.000000%);"></path>
  <path d="M17.000641 246.000000L17.000641 42.000366" style="stroke:rgb(0.000000%,0.000000%,0.000000%); stroke-width: 2.039993;stroke-linecap: round;stroke-linejoin: round;stroke-miterlimit: 10.000000;fill: none;"></path>
  <path d="M17.000641 246.000000L221.000275 246.000000" style="stroke:rgb(0.000000%,0.000000%,0.000000%); stroke-width: 2.039993;stroke-linecap: round;stroke-linejoin: round;stroke-miterlimit: 10.000000;fill: none;"></path>
  <path d="M68.000549 246.000000L68.000549 42.000366" style="stroke:rgb(0.000000%,0.000000%,0.000000%); stroke-width: 2.039993;stroke-linecap: round;stroke-linejoin: round;stroke-miterlimit: 10.000000;fill: none;"></path>
  <path d="M17.000641 195.000092L221.000275 195.000092" style="stroke:rgb(0.000000%,0.000000%,0.000000%); stroke-width: 2.039993;stroke-linecap: round;stroke-linejoin: round;stroke-miterlimit: 10.000000;fill: none;"></path>
  <path d="M119.000458 246.000000L119.000458 42.000366" style="stroke:rgb(0.000000%,0.000000%,0.000000%); stroke-width: 2.039993;stroke-linecap: round;stroke-linejoin: round;stroke-miterlimit: 10.000000;fill: none;"></path>
  <path d="M17.000641 144.000183L221.000275 144.000183" style="stroke:rgb(0.000000%,0.000000%,0.000000%); stroke-width: 2.039993;stroke-linecap: round;stroke-linejoin: round;stroke-miterlimit: 10.000000;fill: none;"></path>
  <path d="M170.000366 246.000000L170.000366 42.000366" style="stroke:rgb(0.000000%,0.000000%,0.000000%); stroke-width: 2.039993;stroke-linecap: round;stroke-linejoin: round;stroke-miterlimit: 10.000000;fill: none;"></path>
  <path d="M17.000641 93.000275L221.000275 93.000275" style="stroke:rgb(0.000000%,0.000000%,0.000000%); stroke-width: 2.039993;stroke-linecap: round;stroke-linejoin: round;stroke-miterlimit: 10.000000;fill: none;"></path>
  <path d="M221.000275 246.000000L221.000275 42.000366" style="stroke:rgb(0.000000%,0.000000%,0.000000%); stroke-width: 2.039993;stroke-linecap: round;stroke-linejoin: round;stroke-miterlimit: 10.000000;fill: none;"></path>
  <path d="M17.000641 42.000366L221.000275 42.000366" style="stroke:rgb(0.000000%,0.000000%,0.000000%); stroke-width: 2.039993;stroke-linecap: round;stroke-linejoin: round;stroke-miterlimit: 10.000000;fill: none;"></path>
  <path d="M22.100632 87.900284L62.900558 87.900284L62.900558 47.100357L22.100632 47.100357Z" style="stroke:rgb(100.000000%,100.000000%,100.000000%); stroke-width: 2.039993;fill: rgb(100.000000%,100.000000%,100.000000%);"></path>
  <path d="M22.100632 87.900284L62.900558 87.900284L62.900558 47.100357L22.100632 47.100357Z" style="stroke:rgb(0.000000%,0.000000%,0.000000%); stroke-width: 2.039993;stroke-linecap: round;stroke-linejoin: round;stroke-miterlimit: 10.000000;fill: none;"></path>
  <g transform="matrix(3.059967,-0.000000,-0.000000,3.059967,33.545593 79.018829)" style="fill: rgb(0.000000%,0.000000%,0.000000%);">
    <use xlink:href="#GLYPHec-lmr12_50"></use>
  </g>
  <path d="M73.100540 87.900284L113.900467 87.900284L113.900467 47.100357L73.100540 47.100357Z" style="stroke:rgb(100.000000%,100.000000%,100.000000%); stroke-width: 2.039993;fill: rgb(100.000000%,100.000000%,100.000000%);"></path>
  <path d="M73.100540 87.900284L113.900467 87.900284L113.900467 47.100357L73.100540 47.100357Z" style="stroke:rgb(0.000000%,0.000000%,0.000000%); stroke-width: 2.039993;stroke-linecap: round;stroke-linejoin: round;stroke-miterlimit: 10.000000;fill: none;"></path>
  <g transform="matrix(3.059967,-0.000000,-0.000000,3.059967,84.545502 79.018829)" style="fill: rgb(0.000000%,0.000000%,0.000000%);">
    <use xlink:href="#GLYPHec-lmr12_54"></use>
  </g>
  <path d="M124.100449 87.900284L164.900375 87.900284L164.900375 47.100357L124.100449 47.100357Z" style="stroke:rgb(100.000000%,100.000000%,100.000000%); stroke-width: 2.039993;fill: rgb(100.000000%,100.000000%,100.000000%);"></path>
  <path d="M124.100449 87.900284L164.900375 87.900284L164.900375 47.100357L124.100449 47.100357Z" style="stroke:rgb(0.000000%,0.000000%,0.000000%); stroke-width: 2.039993;stroke-linecap: round;stroke-linejoin: round;stroke-miterlimit: 10.000000;fill: none;"></path>
  <g transform="matrix(3.059967,-0.000000,-0.000000,3.059967,135.545410 79.018829)" style="fill: rgb(0.000000%,0.000000%,0.000000%);">
    <use xlink:href="#GLYPHec-lmr12_51"></use>
  </g>
  <path d="M175.100357 87.900284L215.900284 87.900284L215.900284 47.100357L175.100357 47.100357Z" style="stroke:rgb(100.000000%,100.000000%,100.000000%); stroke-width: 2.039993;fill: rgb(100.000000%,100.000000%,100.000000%);"></path>
  <path d="M175.100357 87.900284L215.900284 87.900284L215.900284 47.100357L175.100357 47.100357Z" style="stroke:rgb(0.000000%,0.000000%,0.000000%); stroke-width: 2.039993;stroke-linecap: round;stroke-linejoin: round;stroke-miterlimit: 10.000000;fill: none;"></path>
  <g transform="matrix(3.059967,-0.000000,-0.000000,3.059967,177.590149 79.018829)" style="fill: rgb(0.000000%,0.000000%,0.000000%);">
    <use xlink:href="#GLYPHec-lmr12_49"></use>
    <use xlink:href="#GLYPHec-lmr12_53" x="5.875081"></use>
  </g>
  <path d="M22.100632 138.900192L62.900558 138.900192L62.900558 98.100266L22.100632 98.100266Z" style="stroke:rgb(100.000000%,100.000000%,100.000000%); stroke-width: 2.039993;fill: rgb(100.000000%,100.000000%,100.000000%);"></path>
  <path d="M22.100632 138.900192L62.900558 138.900192L62.900558 98.100266L22.100632 98.100266Z" style="stroke:rgb(0.000000%,0.000000%,0.000000%); stroke-width: 2.039993;stroke-linecap: round;stroke-linejoin: round;stroke-miterlimit: 10.000000;fill: none;"></path>
  <g transform="matrix(3.059967,-0.000000,-0.000000,3.059967,24.590424 130.018738)" style="fill: rgb(0.000000%,0.000000%,0.000000%);">
    <use xlink:href="#GLYPHec-lmr12_49"></use>
    <use xlink:href="#GLYPHec-lmr12_49" x="5.875081"></use>
  </g>
  <path d="M73.100540 138.900192L113.900467 138.900192L113.900467 98.100266L73.100540 98.100266Z" style="stroke:rgb(100.000000%,100.000000%,100.000000%); stroke-width: 2.039993;fill: rgb(100.000000%,100.000000%,100.000000%);"></path>
  <path d="M73.100540 138.900192L113.900467 138.900192L113.900467 98.100266L73.100540 98.100266Z" style="stroke:rgb(0.000000%,0.000000%,0.000000%); stroke-width: 2.039993;stroke-linecap: round;stroke-linejoin: round;stroke-miterlimit: 10.000000;fill: none;"></path>
  <g transform="matrix(3.059967,-0.000000,-0.000000,3.059967,84.545502 130.018738)" style="fill: rgb(0.000000%,0.000000%,0.000000%);">
    <use xlink:href="#GLYPHec-lmr12_57"></use>
  </g>
  <path d="M124.100449 138.900192L164.900375 138.900192L164.900375 98.100266L124.100449 98.100266Z" style="stroke:rgb(100.000000%,100.000000%,100.000000%); stroke-width: 2.039993;fill: rgb(100.000000%,100.000000%,100.000000%);"></path>
  <path d="M124.100449 138.900192L164.900375 138.900192L164.900375 98.100266L124.100449 98.100266Z" style="stroke:rgb(0.000000%,0.000000%,0.000000%); stroke-width: 2.039993;stroke-linecap: round;stroke-linejoin: round;stroke-miterlimit: 10.000000;fill: none;"></path>
  <g transform="matrix(3.059967,-0.000000,-0.000000,3.059967,135.545410 130.018738)" style="fill: rgb(0.000000%,0.000000%,0.000000%);">
    <use xlink:href="#GLYPHec-lmr12_52"></use>
  </g>
  <path d="M175.100357 138.900192L215.900284 138.900192L215.900284 98.100266L175.100357 98.100266Z" style="stroke:rgb(100.000000%,100.000000%,100.000000%); stroke-width: 2.039993;fill: rgb(100.000000%,100.000000%,100.000000%);"></path>
  <path d="M175.100357 138.900192L215.900284 138.900192L215.900284 98.100266L175.100357 98.100266Z" style="stroke:rgb(0.000000%,0.000000%,0.000000%); stroke-width: 2.039993;stroke-linecap: round;stroke-linejoin: round;stroke-miterlimit: 10.000000;fill: none;"></path>
  <g transform="matrix(3.059967,-0.000000,-0.000000,3.059967,186.545319 130.018738)" style="fill: rgb(0.000000%,0.000000%,0.000000%);">
    <use xlink:href="#GLYPHec-lmr12_53"></use>
  </g>
  <path d="M22.100632 189.900101L62.900558 189.900101L62.900558 149.100174L22.100632 149.100174Z" style="stroke:rgb(100.000000%,100.000000%,100.000000%); stroke-width: 2.039993;fill: rgb(100.000000%,100.000000%,100.000000%);"></path>
  <path d="M22.100632 189.900101L62.900558 189.900101L62.900558 149.100174L22.100632 149.100174Z" style="stroke:rgb(0.000000%,0.000000%,0.000000%); stroke-width: 2.039993;stroke-linecap: round;stroke-linejoin: round;stroke-miterlimit: 10.000000;fill: none;"></path>
  <g transform="matrix(3.059967,-0.000000,-0.000000,3.059967,33.545593 181.018646)" style="fill: rgb(0.000000%,0.000000%,0.000000%);">
    <use xlink:href="#GLYPHec-lmr12_49"></use>
  </g>
  <path d="M73.100540 189.900101L113.900467 189.900101L113.900467 149.100174L73.100540 149.100174Z" style="stroke:rgb(100.000000%,100.000000%,100.000000%); stroke-width: 2.039993;fill: rgb(100.000000%,100.000000%,100.000000%);"></path>
  <path d="M73.100540 189.900101L113.900467 189.900101L113.900467 149.100174L73.100540 149.100174Z" style="stroke:rgb(0.000000%,0.000000%,0.000000%); stroke-width: 2.039993;stroke-linecap: round;stroke-linejoin: round;stroke-miterlimit: 10.000000;fill: none;"></path>
  <g transform="matrix(3.059967,-0.000000,-0.000000,3.059967,84.545502 181.018646)" style="fill: rgb(0.000000%,0.000000%,0.000000%);">
    <use xlink:href="#GLYPHec-lmr12_56"></use>
  </g>
  <path d="M124.100449 189.900101L164.900375 189.900101L164.900375 149.100174L124.100449 149.100174Z" style="stroke:rgb(100.000000%,100.000000%,100.000000%); stroke-width: 2.039993;fill: rgb(100.000000%,100.000000%,100.000000%);"></path>
  <path d="M124.100449 189.900101L164.900375 189.900101L164.900375 149.100174L124.100449 149.100174Z" style="stroke:rgb(0.000000%,0.000000%,0.000000%); stroke-width: 2.039993;stroke-linecap: round;stroke-linejoin: round;stroke-miterlimit: 10.000000;fill: none;"></path>
  <g transform="matrix(3.059967,-0.000000,-0.000000,3.059967,126.590240 181.018646)" style="fill: rgb(0.000000%,0.000000%,0.000000%);">
    <use xlink:href="#GLYPHec-lmr12_49"></use>
    <use xlink:href="#GLYPHec-lmr12_50" x="5.875081"></use>
  </g>
  <path d="M22.100632 240.900009L62.900558 240.900009L62.900558 200.100082L22.100632 200.100082Z" style="stroke:rgb(100.000000%,100.000000%,100.000000%); stroke-width: 2.039993;fill: rgb(100.000000%,100.000000%,100.000000%);"></path>
  <path d="M22.100632 240.900009L62.900558 240.900009L62.900558 200.100082L22.100632 200.100082Z" style="stroke:rgb(0.000000%,0.000000%,0.000000%); stroke-width: 2.039993;stroke-linecap: round;stroke-linejoin: round;stroke-miterlimit: 10.000000;fill: none;"></path>
  <g transform="matrix(3.059967,-0.000000,-0.000000,3.059967,24.590424 232.018555)" style="fill: rgb(0.000000%,0.000000%,0.000000%);">
    <use xlink:href="#GLYPHec-lmr12_49"></use>
    <use xlink:href="#GLYPHec-lmr12_51" x="5.875081"></use>
  </g>
  <path d="M73.100540 240.900009L113.900467 240.900009L113.900467 200.100082L73.100540 200.100082Z" style="stroke:rgb(100.000000%,100.000000%,100.000000%); stroke-width: 2.039993;fill: rgb(100.000000%,100.000000%,100.000000%);"></path>
  <path d="M73.100540 240.900009L113.900467 240.900009L113.900467 200.100082L73.100540 200.100082Z" style="stroke:rgb(0.000000%,0.000000%,0.000000%); stroke-width: 2.039993;stroke-linecap: round;stroke-linejoin: round;stroke-miterlimit: 10.000000;fill: none;"></path>
  <g transform="matrix(3.059967,-0.000000,-0.000000,3.059967,75.590332 232.018555)" style="fill: rgb(0.000000%,0.000000%,0.000000%);">
    <use xlink:href="#GLYPHec-lmr12_49"></use>
    <use xlink:href="#GLYPHec-lmr12_52" x="5.875081"></use>
  </g>
  <path d="M124.100449 240.900009L164.900375 240.900009L164.900375 200.100082L124.100449 200.100082Z" style="stroke:rgb(100.000000%,100.000000%,100.000000%); stroke-width: 2.039993;fill: rgb(100.000000%,100.000000%,100.000000%);"></path>
  <path d="M124.100449 240.900009L164.900375 240.900009L164.900375 200.100082L124.100449 200.100082Z" style="stroke:rgb(0.000000%,0.000000%,0.000000%); stroke-width: 2.039993;stroke-linecap: round;stroke-linejoin: round;stroke-miterlimit: 10.000000;fill: none;"></path>
  <g transform="matrix(3.059967,-0.000000,-0.000000,3.059967,126.590240 232.018555)" style="fill: rgb(0.000000%,0.000000%,0.000000%);">
    <use xlink:href="#GLYPHec-lmr12_49"></use>
    <use xlink:href="#GLYPHec-lmr12_48" x="5.875081"></use>
  </g>
  <path d="M175.100357 240.900009L215.900284 240.900009L215.900284 200.100082L175.100357 200.100082Z" style="stroke:rgb(100.000000%,100.000000%,100.000000%); stroke-width: 2.039993;fill: rgb(100.000000%,100.000000%,100.000000%);"></path>
  <path d="M175.100357 240.900009L215.900284 240.900009L215.900284 200.100082L175.100357 200.100082Z" style="stroke:rgb(0.000000%,0.000000%,0.000000%); stroke-width: 2.039993;stroke-linecap: round;stroke-linejoin: round;stroke-miterlimit: 10.000000;fill: none;"></path>
  <g transform="matrix(3.059967,-0.000000,-0.000000,3.059967,186.545319 232.018555)" style="fill: rgb(0.000000%,0.000000%,0.000000%);">
    <use xlink:href="#GLYPHec-lmr12_55"></use>
  </g>
  <g transform="matrix(2.550003,-0.000000,-0.000000,2.550003,1.671326 24.121841)" style="fill: rgb(0.000000%,0.000000%,0.000000%);">
    <use xlink:href="#GLYPHec-lmr12_83"></use>
    <use xlink:href="#GLYPHec-lmr12_116" x="6.528089"></use>
    <use xlink:href="#GLYPHec-lmr12_97" x="11.097491"></use>
    <use xlink:href="#GLYPHec-lmr12_114" x="16.972572"></use>
    <use xlink:href="#GLYPHec-lmr12_116" x="21.541974"></use>
  </g>
  <g transform="matrix(2.550003,-0.000000,-0.000000,2.550003,77.955475 24.121841)" style="fill: rgb(0.000000%,0.000000%,0.000000%);">
    <use xlink:href="#GLYPHec-lmr12_40"></use>
    <use xlink:href="#GLYPHec-lmr12_83" x="4.569402"></use>
    <use xlink:href="#GLYPHec-lmr12_99" x="11.097491"></use>
    <use xlink:href="#GLYPHec-lmr12_114" x="16.319564"></use>
    <use xlink:href="#GLYPHec-lmr12_97" x="20.888966"></use>
    <use xlink:href="#GLYPHec-lmr12_109" x="26.764048"></use>
  </g>
  <g transform="matrix(2.550003,-0.000000,-0.000000,2.550003,169.994736 24.121841)" style="fill: rgb(0.000000%,0.000000%,0.000000%);">
    <use xlink:href="#GLYPHec-lmr12_98"></use>
    <use xlink:href="#GLYPHec-lmr12_108" x="6.528089"></use>
    <use xlink:href="#GLYPHec-lmr12_101" x="9.792149"></use>
    <use xlink:href="#GLYPHec-lmr12_100" x="15.014222"></use>
    <use xlink:href="#GLYPHec-lmr12_41" x="21.542311"></use>
  </g>
  <path d="M374.000000 246.000000L577.999634 246.000000L577.999634 42.000366L374.000000 42.000366Z" style="stroke:rgb(69.999695%,69.999695%,100.000000%); stroke-width: 2.039993;fill: rgb(69.999695%,69.999695%,100.000000%);"></path>
  <path d="M374.000000 246.000000L374.000000 42.000366" style="stroke:rgb(0.000000%,0.000000%,0.000000%); stroke-width: 2.039993;stroke-linecap: round;stroke-linejoin: round;stroke-miterlimit: 10.000000;fill: none;"></path>
  <path d="M374.000000 246.000000L577.999634 246.000000" style="stroke:rgb(0.000000%,0.000000%,0.000000%); stroke-width: 2.039993;stroke-linecap: round;stroke-linejoin: round;stroke-miterlimit: 10.000000;fill: none;"></path>
  <path d="M424.999908 246.000000L424.999908 42.000366" style="stroke:rgb(0.000000%,0.000000%,0.000000%); stroke-width: 2.039993;stroke-linecap: round;stroke-linejoin: round;stroke-miterlimit: 10.000000;fill: none;"></path>
  <path d="M374.000000 195.000092L577.999634 195.000092" style="stroke:rgb(0.000000%,0.000000%,0.000000%); stroke-width: 2.039993;stroke-linecap: round;stroke-linejoin: round;stroke-miterlimit: 10.000000;fill: none;"></path>
  <path d="M475.999817 246.000000L475.999817 42.000366" style="stroke:rgb(0.000000%,0.000000%,0.000000%); stroke-width: 2.039993;stroke-linecap: round;stroke-linejoin: round;stroke-miterlimit: 10.000000;fill: none;"></path>
  <path d="M374.000000 144.000183L577.999634 144.000183" style="stroke:rgb(0.000000%,0.000000%,0.000000%); stroke-width: 2.039993;stroke-linecap: round;stroke-linejoin: round;stroke-miterlimit: 10.000000;fill: none;"></path>
  <path d="M526.999725 246.000000L526.999725 42.000366" style="stroke:rgb(0.000000%,0.000000%,0.000000%); stroke-width: 2.039993;stroke-linecap: round;stroke-linejoin: round;stroke-miterlimit: 10.000000;fill: none;"></path>
  <path d="M374.000000 93.000275L577.999634 93.000275" style="stroke:rgb(0.000000%,0.000000%,0.000000%); stroke-width: 2.039993;stroke-linecap: round;stroke-linejoin: round;stroke-miterlimit: 10.000000;fill: none;"></path>
  <path d="M577.999634 246.000000L577.999634 42.000366" style="stroke:rgb(0.000000%,0.000000%,0.000000%); stroke-width: 2.039993;stroke-linecap: round;stroke-linejoin: round;stroke-miterlimit: 10.000000;fill: none;"></path>
  <path d="M374.000000 42.000366L577.999634 42.000366" style="stroke:rgb(0.000000%,0.000000%,0.000000%); stroke-width: 2.039993;stroke-linecap: round;stroke-linejoin: round;stroke-miterlimit: 10.000000;fill: none;"></path>
  <path d="M379.099991 87.900284L419.899918 87.900284L419.899918 47.100357L379.099991 47.100357Z" style="stroke:rgb(100.000000%,100.000000%,100.000000%); stroke-width: 2.039993;fill: rgb(100.000000%,100.000000%,100.000000%);"></path>
  <path d="M379.099991 87.900284L419.899918 87.900284L419.899918 47.100357L379.099991 47.100357Z" style="stroke:rgb(0.000000%,0.000000%,0.000000%); stroke-width: 2.039993;stroke-linecap: round;stroke-linejoin: round;stroke-miterlimit: 10.000000;fill: none;"></path>
  <g transform="matrix(3.059967,-0.000000,-0.000000,3.059967,390.544952 79.018829)" style="fill: rgb(0.000000%,0.000000%,0.000000%);">
    <use xlink:href="#GLYPHec-lmr12_49"></use>
  </g>
  <path d="M430.099899 87.900284L470.899826 87.900284L470.899826 47.100357L430.099899 47.100357Z" style="stroke:rgb(100.000000%,100.000000%,100.000000%); stroke-width: 2.039993;fill: rgb(100.000000%,100.000000%,100.000000%);"></path>
  <path d="M430.099899 87.900284L470.899826 87.900284L470.899826 47.100357L430.099899 47.100357Z" style="stroke:rgb(0.000000%,0.000000%,0.000000%); stroke-width: 2.039993;stroke-linecap: round;stroke-linejoin: round;stroke-miterlimit: 10.000000;fill: none;"></path>
  <g transform="matrix(3.059967,-0.000000,-0.000000,3.059967,441.544861 79.018829)" style="fill: rgb(0.000000%,0.000000%,0.000000%);">
    <use xlink:href="#GLYPHec-lmr12_50"></use>
  </g>
  <path d="M481.099808 87.900284L521.899734 87.900284L521.899734 47.100357L481.099808 47.100357Z" style="stroke:rgb(100.000000%,100.000000%,100.000000%); stroke-width: 2.039993;fill: rgb(100.000000%,100.000000%,100.000000%);"></path>
  <path d="M481.099808 87.900284L521.899734 87.900284L521.899734 47.100357L481.099808 47.100357Z" style="stroke:rgb(0.000000%,0.000000%,0.000000%); stroke-width: 2.039993;stroke-linecap: round;stroke-linejoin: round;stroke-miterlimit: 10.000000;fill: none;"></path>
  <g transform="matrix(3.059967,-0.000000,-0.000000,3.059967,492.544769 79.018829)" style="fill: rgb(0.000000%,0.000000%,0.000000%);">
    <use xlink:href="#GLYPHec-lmr12_51"></use>
  </g>
  <path d="M532.099716 87.900284L572.899643 87.900284L572.899643 47.100357L532.099716 47.100357Z" style="stroke:rgb(100.000000%,100.000000%,100.000000%); stroke-width: 2.039993;fill: rgb(100.000000%,100.000000%,100.000000%);"></path>
  <path d="M532.099716 87.900284L572.899643 87.900284L572.899643 47.100357L532.099716 47.100357Z" style="stroke:rgb(0.000000%,0.000000%,0.000000%); stroke-width: 2.039993;stroke-linecap: round;stroke-linejoin: round;stroke-miterlimit: 10.000000;fill: none;"></path>
  <g transform="matrix(3.059967,-0.000000,-0.000000,3.059967,543.544678 79.018829)" style="fill: rgb(0.000000%,0.000000%,0.000000%);">
    <use xlink:href="#GLYPHec-lmr12_52"></use>
  </g>
  <path d="M379.099991 138.900192L419.899918 138.900192L419.899918 98.100266L379.099991 98.100266Z" style="stroke:rgb(100.000000%,100.000000%,100.000000%); stroke-width: 2.039993;fill: rgb(100.000000%,100.000000%,100.000000%);"></path>
  <path d="M379.099991 138.900192L419.899918 138.900192L419.899918 98.100266L379.099991 98.100266Z" style="stroke:rgb(0.000000%,0.000000%,0.000000%); stroke-width: 2.039993;stroke-linecap: round;stroke-linejoin: round;stroke-miterlimit: 10.000000;fill: none;"></path>
  <g transform="matrix(3.059967,-0.000000,-0.000000,3.059967,390.544952 130.018738)" style="fill: rgb(0.000000%,0.000000%,0.000000%);">
    <use xlink:href="#GLYPHec-lmr12_53"></use>
  </g>
  <path d="M430.099899 138.900192L470.899826 138.900192L470.899826 98.100266L430.099899 98.100266Z" style="stroke:rgb(100.000000%,100.000000%,100.000000%); stroke-width: 2.039993;fill: rgb(100.000000%,100.000000%,100.000000%);"></path>
  <path d="M430.099899 138.900192L470.899826 138.900192L470.899826 98.100266L430.099899 98.100266Z" style="stroke:rgb(0.000000%,0.000000%,0.000000%); stroke-width: 2.039993;stroke-linecap: round;stroke-linejoin: round;stroke-miterlimit: 10.000000;fill: none;"></path>
  <g transform="matrix(3.059967,-0.000000,-0.000000,3.059967,441.544861 130.018738)" style="fill: rgb(0.000000%,0.000000%,0.000000%);">
    <use xlink:href="#GLYPHec-lmr12_54"></use>
  </g>
  <path d="M481.099808 138.900192L521.899734 138.900192L521.899734 98.100266L481.099808 98.100266Z" style="stroke:rgb(100.000000%,100.000000%,100.000000%); stroke-width: 2.039993;fill: rgb(100.000000%,100.000000%,100.000000%);"></path>
  <path d="M481.099808 138.900192L521.899734 138.900192L521.899734 98.100266L481.099808 98.100266Z" style="stroke:rgb(0.000000%,0.000000%,0.000000%); stroke-width: 2.039993;stroke-linecap: round;stroke-linejoin: round;stroke-miterlimit: 10.000000;fill: none;"></path>
  <g transform="matrix(3.059967,-0.000000,-0.000000,3.059967,492.544769 130.018738)" style="fill: rgb(0.000000%,0.000000%,0.000000%);">
    <use xlink:href="#GLYPHec-lmr12_55"></use>
  </g>
  <path d="M532.099716 138.900192L572.899643 138.900192L572.899643 98.100266L532.099716 98.100266Z" style="stroke:rgb(100.000000%,100.000000%,100.000000%); stroke-width: 2.039993;fill: rgb(100.000000%,100.000000%,100.000000%);"></path>
  <path d="M532.099716 138.900192L572.899643 138.900192L572.899643 98.100266L532.099716 98.100266Z" style="stroke:rgb(0.000000%,0.000000%,0.000000%); stroke-width: 2.039993;stroke-linecap: round;stroke-linejoin: round;stroke-miterlimit: 10.000000;fill: none;"></path>
  <g transform="matrix(3.059967,-0.000000,-0.000000,3.059967,543.544678 130.018738)" style="fill: rgb(0.000000%,0.000000%,0.000000%);">
    <use xlink:href="#GLYPHec-lmr12_56"></use>
  </g>
  <path d="M379.099991 189.900101L419.899918 189.900101L419.899918 149.100174L379.099991 149.100174Z" style="stroke:rgb(100.000000%,100.000000%,100.000000%); stroke-width: 2.039993;fill: rgb(100.000000%,100.000000%,100.000000%);"></path>
  <path d="M379.099991 189.900101L419.899918 189.900101L419.899918 149.100174L379.099991 149.100174Z" style="stroke:rgb(0.000000%,0.000000%,0.000000%); stroke-width: 2.039993;stroke-linecap: round;stroke-linejoin: round;stroke-miterlimit: 10.000000;fill: none;"></path>
  <g transform="matrix(3.059967,-0.000000,-0.000000,3.059967,390.544952 181.018646)" style="fill: rgb(0.000000%,0.000000%,0.000000%);">
    <use xlink:href="#GLYPHec-lmr12_57"></use>
  </g>
  <path d="M430.099899 189.900101L470.899826 189.900101L470.899826 149.100174L430.099899 149.100174Z" style="stroke:rgb(100.000000%,100.000000%,100.000000%); stroke-width: 2.039993;fill: rgb(100.000000%,100.000000%,100.000000%);"></path>
  <path d="M430.099899 189.900101L470.899826 189.900101L470.899826 149.100174L430.099899 149.100174Z" style="stroke:rgb(0.000000%,0.000000%,0.000000%); stroke-width: 2.039993;stroke-linecap: round;stroke-linejoin: round;stroke-miterlimit: 10.000000;fill: none;"></path>
  <g transform="matrix(3.059967,-0.000000,-0.000000,3.059967,432.589691 181.018646)" style="fill: rgb(0.000000%,0.000000%,0.000000%);">
    <use xlink:href="#GLYPHec-lmr12_49"></use>
    <use xlink:href="#GLYPHec-lmr12_48" x="5.875081"></use>
  </g>
  <path d="M481.099808 189.900101L521.899734 189.900101L521.899734 149.100174L481.099808 149.100174Z" style="stroke:rgb(100.000000%,100.000000%,100.000000%); stroke-width: 2.039993;fill: rgb(100.000000%,100.000000%,100.000000%);"></path>
  <path d="M481.099808 189.900101L521.899734 189.900101L521.899734 149.100174L481.099808 149.100174Z" style="stroke:rgb(0.000000%,0.000000%,0.000000%); stroke-width: 2.039993;stroke-linecap: round;stroke-linejoin: round;stroke-miterlimit: 10.000000;fill: none;"></path>
  <g transform="matrix(3.059967,-0.000000,-0.000000,3.059967,483.589600 181.018646)" style="fill: rgb(0.000000%,0.000000%,0.000000%);">
    <use xlink:href="#GLYPHec-lmr12_49"></use>
    <use xlink:href="#GLYPHec-lmr12_49" x="5.875081"></use>
  </g>
  <path d="M532.099716 189.900101L572.899643 189.900101L572.899643 149.100174L532.099716 149.100174Z" style="stroke:rgb(100.000000%,100.000000%,100.000000%); stroke-width: 2.039993;fill: rgb(100.000000%,100.000000%,100.000000%);"></path>
  <path d="M532.099716 189.900101L572.899643 189.900101L572.899643 149.100174L532.099716 149.100174Z" style="stroke:rgb(0.000000%,0.000000%,0.000000%); stroke-width: 2.039993;stroke-linecap: round;stroke-linejoin: round;stroke-miterlimit: 10.000000;fill: none;"></path>
  <g transform="matrix(3.059967,-0.000000,-0.000000,3.059967,534.589508 181.018646)" style="fill: rgb(0.000000%,0.000000%,0.000000%);">
    <use xlink:href="#GLYPHec-lmr12_49"></use>
    <use xlink:href="#GLYPHec-lmr12_50" x="5.875081"></use>
  </g>
  <path d="M379.099991 240.900009L419.899918 240.900009L419.899918 200.100082L379.099991 200.100082Z" style="stroke:rgb(100.000000%,100.000000%,100.000000%); stroke-width: 2.039993;fill: rgb(100.000000%,100.000000%,100.000000%);"></path>
  <path d="M379.099991 240.900009L419.899918 240.900009L419.899918 200.100082L379.099991 200.100082Z" style="stroke:rgb(0.000000%,0.000000%,0.000000%); stroke-width: 2.039993;stroke-linecap: round;stroke-linejoin: round;stroke-miterlimit: 10.000000;fill: none;"></path>
  <g transform="matrix(3.059967,-0.000000,-0.000000,3.059967,381.589783 232.018555)" style="fill: rgb(0.000000%,0.000000%,0.000000%);">
    <use xlink:href="#GLYPHec-lmr12_49"></use>
    <use xlink:href="#GLYPHec-lmr12_51" x="5.875081"></use>
  </g>
  <path d="M430.099899 240.900009L470.899826 240.900009L470.899826 200.100082L430.099899 200.100082Z" style="stroke:rgb(100.000000%,100.000000%,100.000000%); stroke-width: 2.039993;fill: rgb(100.000000%,100.000000%,100.000000%);"></path>
  <path d="M430.099899 240.900009L470.899826 240.900009L470.899826 200.100082L430.099899 200.100082Z" style="stroke:rgb(0.000000%,0.000000%,0.000000%); stroke-width: 2.039993;stroke-linecap: round;stroke-linejoin: round;stroke-miterlimit: 10.000000;fill: none;"></path>
  <g transform="matrix(3.059967,-0.000000,-0.000000,3.059967,432.589691 232.018555)" style="fill: rgb(0.000000%,0.000000%,0.000000%);">
    <use xlink:href="#GLYPHec-lmr12_49"></use>
    <use xlink:href="#GLYPHec-lmr12_52" x="5.875081"></use>
  </g>
  <path d="M481.099808 240.900009L521.899734 240.900009L521.899734 200.100082L481.099808 200.100082Z" style="stroke:rgb(100.000000%,100.000000%,100.000000%); stroke-width: 2.039993;fill: rgb(100.000000%,100.000000%,100.000000%);"></path>
  <path d="M481.099808 240.900009L521.899734 240.900009L521.899734 200.100082L481.099808 200.100082Z" style="stroke:rgb(0.000000%,0.000000%,0.000000%); stroke-width: 2.039993;stroke-linecap: round;stroke-linejoin: round;stroke-miterlimit: 10.000000;fill: none;"></path>
  <g transform="matrix(3.059967,-0.000000,-0.000000,3.059967,483.589600 232.018555)" style="fill: rgb(0.000000%,0.000000%,0.000000%);">
    <use xlink:href="#GLYPHec-lmr12_49"></use>
    <use xlink:href="#GLYPHec-lmr12_53" x="5.875081"></use>
  </g>
  <g transform="matrix(2.550003,-0.000000,-0.000000,2.550003,375.567596 24.121841)" style="fill: rgb(0.000000%,0.000000%,0.000000%);">
    <use xlink:href="#GLYPHec-lmr12_71"></use>
    <use xlink:href="#GLYPHec-lmr12_111" x="9.219138"></use>
    <use xlink:href="#GLYPHec-lmr12_97" x="15.094219"></use>
    <use xlink:href="#GLYPHec-lmr12_108" x="20.969300"></use>
  </g>
  <g transform="matrix(2.550003,-0.000000,-0.000000,2.550003,447.080704 24.121841)" style="fill: rgb(0.000000%,0.000000%,0.000000%);">
    <use xlink:href="#GLYPHec-lmr12_40"></use>
    <use xlink:href="#GLYPHec-lmr12_79" x="4.569402"></use>
    <use xlink:href="#GLYPHec-lmr12_114" x="13.708558"></use>
    <use xlink:href="#GLYPHec-lmr12_100" x="18.277960"></use>
    <use xlink:href="#GLYPHec-lmr12_101" x="24.806050"></use>
    <use xlink:href="#GLYPHec-lmr12_114" x="30.028123"></use>
    <use xlink:href="#GLYPHec-lmr12_101" x="34.597525"></use>
    <use xlink:href="#GLYPHec-lmr12_100" x="39.819598"></use>
    <use xlink:href="#GLYPHec-lmr12_41" x="46.347687"></use>
  </g>
</svg>
