<svg xmlns="http://www.w3.org/2000/svg" xmlns:xlink="http://www.w3.org/1999/xlink" width="209.427" height="209.427"><defs><path style="fill-rule:evenodd" d="M448-320c0-83-5-164-41-240-41-83-113-105-162-105-58 0-129 29-166 112-28 63-38 125-38 233 0 97 7 170 43 241C123-3 192 21 244 21c87 0 137-52 166-110 36-75 38-173 38-231m-76-12c0 67 0 143-11 204C342-18 279 1 244 1c-32 0-97-18-116-127-11-60-11-136-11-206 0-82 0-156 16-215 17-67 68-98 111-98 38 0 96 23 115 109 13 57 13 136 13 204" transform="scale(.01196)" id="j"/><path style="fill-rule:evenodd" d="M410 0v-29h-31c-88 0-91-12-91-48v-564c0-23 0-24-20-24-24 27-74 64-177 64v29c23 0 73 0 128-26v521c0 36-3 48-91 48H97V0c27-2 124-2 157-2s129 0 156 2" transform="scale(.01196)" id="a"/><path style="fill-rule:evenodd" d="M440-168h-22c-3 17-11 72-21 88-7 9-64 9-94 9H118c27-23 88-87 114-111 152-140 208-192 208-291 0-115-91-192-207-192S49-566 49-480c0 51 44 51 47 51 21 0 47-15 47-47 0-28-19-47-47-47-9 0-11 0-14 1 19-68 73-114 138-114 85 0 137 71 137 163 0 85-49 159-106 223L49-24V0h365" transform="scale(.01196)" id="b"/><path style="fill-rule:evenodd" d="M448-171c0-92-74-164-170-181 87-25 143-98 143-176 0-79-82-137-179-137-100 0-174 61-174 134 0 40 31 48 46 48 21 0 45-15 45-45 0-32-24-46-46-46-6 0-8 0-11 1 38-68 132-68 137-68 33 0 98 15 98 113 0 19-3 75-32 118-30 44-64 47-91 48l-30 3c-17 1-21 2-21 11 0 10 5 10 23 10h46c85 0 123 70 123 166C355-41 287-6 238-6 190-6 108-29 79-95c32 5 61-13 61-49 0-29-21-49-49-49-24 0-50 14-50 52 0 89 89 162 200 162 119 0 207-91 207-192" transform="scale(.01196)" id="d"/><path style="fill-rule:evenodd" d="M462-167v-29H361v-455c0-19 0-24-14-24-8 0-11 0-19 12L27-196v29h263v91c0 37-2 47-75 47h-20V0c23-2 102-2 130-2s108 0 131 2v-29h-20c-72 0-75-10-75-47v-91m-66-29H52l243-377" transform="scale(.01196)" id="g"/><path style="fill-rule:evenodd" d="M440-201c0-119-80-218-185-218-57 0-101 25-127 53v-207c43 14 78 15 89 15 113 0 185-83 185-97 0-4-2-9-8-9 0 0-4 0-13 4-56 24-104 27-130 27-66 0-113-20-132-28-7-3-10-3-10-3-8 0-8 6-8 22v297c0 18 0 24 12 24 5 0 6-1 16-13 28-41 75-65 125-65 53 0 79 49 87 66 17 39 18 88 18 126s0 95-28 140C309-31 270-6 226-6 160-6 95-51 77-124c5 2 11 3 16 3 17 0 44-10 44-44 0-28-19-44-44-44-18 0-44 9-44 48 0 85 68 182 179 182 113 0 212-95 212-222" transform="scale(.01196)" id="f"/><path style="fill-rule:evenodd" d="M448-204c0-133-93-222-193-222-89 0-122 77-132 105v-27c0-253 123-293 177-293 36 0 72 11 91 41-12 0-50 0-50 41 0 22 15 41 41 41 25 0 42-15 42-44 0-52-38-103-125-103-126 0-258 129-258 349C41-41 161 21 246 21c109 0 202-95 202-225m-82-1c0 51 0 96-19 134-25 48-61 65-101 65-63 0-93-56-102-77-9-26-19-75-19-145 0-79 36-178 126-178 55 0 84 37 99 71 16 37 16 87 16 130" transform="scale(.01196)" id="c"/><path style="fill-rule:evenodd" d="M475-621v-23H234c-121 0-123-13-127-32H85L54-476h22c3-18 12-80 25-91 8-6 83-6 97-6h212L304-421c-27 39-128 203-128 391 0 11 0 51 41 51 42 0 42-39 42-52v-50c0-149 24-265 71-332" transform="scale(.01196)" id="i"/><path style="fill-rule:evenodd" d="M448-166c0-102-72-147-150-195 50-27 123-73 123-157 0-87-84-147-176-147-99 0-177 73-177 164 0 34 10 68 38 102 11 13 12 14 82 63C91-291 41-224 41-151 41-45 142 21 244 21c111 0 204-82 204-187m-68-351c0 61-44 110-102 142l-116-76c-13-9-53-35-53-84 0-65 68-106 135-106 72 0 136 52 136 124m22 383C402-58 325-6 245-6 160-6 87-68 87-151c0-78 57-141 122-171l121 79c26 17 72 48 72 109" transform="scale(.01196)" id="h"/><path style="fill-rule:evenodd" d="M448-329c0-269-112-336-200-336-110 0-207 92-207 224s93 222 193 222c74 0 112-54 132-105v33C366-55 261-6 201-6c-24 0-77-3-102-38h6c7 2 43-4 43-41 0-22-15-41-41-41s-42 17-42 43c0 62 50 104 137 104 125 0 246-133 246-350m-84-90c0 84-38 180-126 180-63 0-90-51-99-70-16-38-16-86-16-131 0-56 0-104 26-145 18-27 45-56 99-56 57 0 86 50 96 73 20 49 20 134 20 149" transform="scale(.01196)" id="e"/></defs><path d="M2 206h204V2H2Z" style="stroke:#b2b2ff;stroke-width:2.039993;fill:#b2b2ff"/><path d="M2 206V2M2 206h204M53 206V2M2 155h204M104 206V2M2 104h204M155 206V2M2 53h204M206 206V2M2 2h204" style="stroke:#000;stroke-width:2.039993;stroke-linecap:round;stroke-linejoin:round;stroke-miterlimit:10;fill:none"/><path d="M7.1 47.9h40.8V7.1H7.1Z" style="stroke:#fff;stroke-width:2.039993;fill:#fff"/><path d="M7.1 47.9h40.8V7.1H7.1Z" style="stroke:#000;stroke-width:2.039993;stroke-linecap:round;stroke-linejoin:round;stroke-miterlimit:10;fill:none"/><use xlink:href="#a" transform="matrix(3.05997 0 0 3.05997 18.545 39.019)" style="fill:#000"/><path d="M58.1 47.9h40.8V7.1H58.1Z" style="stroke:#fff;stroke-width:2.039993;fill:#fff"/><path d="M58.1 47.9h40.8V7.1H58.1Z" style="stroke:#000;stroke-width:2.039993;stroke-linecap:round;stroke-linejoin:round;stroke-miterlimit:10;fill:none"/><use xlink:href="#b" transform="matrix(3.05997 0 0 3.05997 69.545 39.019)" style="fill:#000"/><path d="M109.1 47.9h40.8V7.1h-40.8Z" style="stroke:#fff;stroke-width:2.039993;fill:#fff"/><path d="M109.1 47.9h40.8V7.1h-40.8Z" style="stroke:#000;stroke-width:2.039993;stroke-linecap:round;stroke-linejoin:round;stroke-miterlimit:10;fill:none"/><use xlink:href="#c" transform="matrix(3.05997 0 0 3.05997 120.545 39.019)" style="fill:#000"/><path d="M160.1 47.9h40.8V7.1h-40.8Z" style="stroke:#fff;stroke-width:2.039993;fill:#fff"/><path d="M160.1 47.9h40.8V7.1h-40.8Z" style="stroke:#000;stroke-width:2.039993;stroke-linecap:round;stroke-linejoin:round;stroke-miterlimit:10;fill:none"/><use xlink:href="#d" transform="matrix(3.05997 0 0 3.05997 171.545 39.019)" style="fill:#000"/><path d="M7.1 98.9h40.8V58.1H7.1Z" style="stroke:#fff;stroke-width:2.039993;fill:#fff"/><path d="M7.1 98.9h40.8V58.1H7.1Z" style="stroke:#000;stroke-width:2.039993;stroke-linecap:round;stroke-linejoin:round;stroke-miterlimit:10;fill:none"/><use xlink:href="#e" transform="matrix(3.05997 0 0 3.05997 18.545 90.019)" style="fill:#000"/><path d="M58.1 98.9h40.8V58.1H58.1Z" style="stroke:#fff;stroke-width:2.039993;fill:#fff"/><path d="M58.1 98.9h40.8V58.1H58.1Z" style="stroke:#000;stroke-width:2.039993;stroke-linecap:round;stroke-linejoin:round;stroke-miterlimit:10;fill:none"/><use xlink:href="#f" transform="matrix(3.05997 0 0 3.05997 69.545 90.019)" style="fill:#000"/><path d="M160.1 98.9h40.8V58.1h-40.8Z" style="stroke:#fff;stroke-width:2.039993;fill:#fff"/><path d="M160.1 98.9h40.8V58.1h-40.8Z" style="stroke:#000;stroke-width:2.039993;stroke-linecap:round;stroke-linejoin:round;stroke-miterlimit:10;fill:none"/><use xlink:href="#g" transform="matrix(3.05997 0 0 3.05997 171.545 90.019)" style="fill:#000"/><path d="M7.1 149.9h40.8v-40.8H7.1Z" style="stroke:#fff;stroke-width:2.039993;fill:#fff"/><path d="M7.1 149.9h40.8v-40.8H7.1Z" style="stroke:#000;stroke-width:2.039993;stroke-linecap:round;stroke-linejoin:round;stroke-miterlimit:10;fill:none"/><g transform="matrix(3.05997 0 0 3.05997 9.59 141.019)" style="fill:#000"><use xlink:href="#a"/><use xlink:href="#d" x="5.875"/></g><path d="M58.1 149.9h40.8v-40.8H58.1Z" style="stroke:#fff;stroke-width:2.039993;fill:#fff"/><path d="M58.1 149.9h40.8v-40.8H58.1Z" style="stroke:#000;stroke-width:2.039993;stroke-linecap:round;stroke-linejoin:round;stroke-miterlimit:10;fill:none"/><g transform="matrix(3.05997 0 0 3.05997 60.59 141.019)" style="fill:#000"><use xlink:href="#a"/><use xlink:href="#a" x="5.875"/></g><path d="M109.1 149.9h40.8v-40.8h-40.8Z" style="stroke:#fff;stroke-width:2.039993;fill:#fff"/><path d="M109.1 149.9h40.8v-40.8h-40.8Z" style="stroke:#000;stroke-width:2.039993;stroke-linecap:round;stroke-linejoin:round;stroke-miterlimit:10;fill:none"/><use xlink:href="#h" transform="matrix(3.05997 0 0 3.05997 120.545 141.019)" style="fill:#000"/><path d="M160.1 149.9h40.8v-40.8h-40.8Z" style="stroke:#fff;stroke-width:2.039993;fill:#fff"/><path d="M160.1 149.9h40.8v-40.8h-40.8Z" style="stroke:#000;stroke-width:2.039993;stroke-linecap:round;stroke-linejoin:round;stroke-miterlimit:10;fill:none"/><use xlink:href="#i" transform="matrix(3.05997 0 0 3.05997 171.545 141.019)" style="fill:#000"/><path d="M7.1 200.9h40.8v-40.8H7.1Z" style="stroke:#fff;stroke-width:2.039993;fill:#fff"/><path d="M7.1 200.9h40.8v-40.8H7.1Z" style="stroke:#000;stroke-width:2.039993;stroke-linecap:round;stroke-linejoin:round;stroke-miterlimit:10;fill:none"/><g transform="matrix(3.05997 0 0 3.05997 9.59 192.019)" style="fill:#000"><use xlink:href="#a"/><use xlink:href="#g" x="5.875"/></g><path d="M58.1 200.9h40.8v-40.8H58.1Z" style="stroke:#fff;stroke-width:2.039993;fill:#fff"/><path d="M58.1 200.9h40.8v-40.8H58.1Z" style="stroke:#000;stroke-width:2.039993;stroke-linecap:round;stroke-linejoin:round;stroke-miterlimit:10;fill:none"/><g transform="matrix(3.05997 0 0 3.05997 60.59 192.019)" style="fill:#000"><use xlink:href="#a"/><use xlink:href="#j" x="5.875"/></g><path d="M109.1 200.9h40.8v-40.8h-40.8Z" style="stroke:#fff;stroke-width:2.039993;fill:#fff"/><path d="M109.1 200.9h40.8v-40.8h-40.8Z" style="stroke:#000;stroke-width:2.039993;stroke-linecap:round;stroke-linejoin:round;stroke-miterlimit:10;fill:none"/><g transform="matrix(3.05997 0 0 3.05997 111.59 192.019)" style="fill:#000"><use xlink:href="#a"/><use xlink:href="#f" x="5.875"/></g><path d="M160.1 200.9h40.8v-40.8h-40.8Z" style="stroke:#fff;stroke-width:2.039993;fill:#fff"/><path d="M160.1 200.9h40.8v-40.8h-40.8Z" style="stroke:#000;stroke-width:2.039993;stroke-linecap:round;stroke-linejoin:round;stroke-miterlimit:10;fill:none"/><g transform="matrix(3.05997 0 0 3.05997 162.59 192.019)" style="fill:#000"><use xlink:href="#a"/><use xlink:href="#b" x="5.875"/></g></svg>