<svg xmlns="http://www.w3.org/2000/svg" width="816" height="415.741" viewBox="0 0 612 311.806" version="1.2"><path style="stroke:none;fill-rule:nonzero;fill:#fff;fill-opacity:0" d="M0 0h612v311.805H0Zm0 0"/><path style="fill:none;stroke-width:1.41;stroke-linecap:round;stroke-linejoin:round;stroke:#000;stroke-opacity:1;comp-op:src;clip-to-self:true;stroke-miterlimit:10" d="m269.672 128.21-.063.11-.07-.12-.078-.09-.04-.122-.07-.168-.12-.191-.11-.23-.172-.239-.187-.23-.211-.23-.54-.438-.34-.203-.362-.188-.38-.16-.398-.11-.351-.07-.36.008-.32.082-.27.18-.23.3-.148.38-.114.488v.62l.051.7.082.8.129.86.121.91.149.961.109.989.14 1 .13.98.101.98.11.93.109.88.082.812.078.75.05.687.04.652.02.598-.02.531-.02.48v.4l-.02.3v.242l-.05.117-.098.082-.11-.101"/><path style="fill:none;stroke-width:1.41;stroke-linecap:round;stroke-linejoin:round;stroke:#000;stroke-opacity:1;comp-op:src;clip-to-self:true;stroke-miterlimit:10" d="m264.129 137.64.09.06.133.081.117.028.191.03h.192l.27-.038.3-.07.328-.102.45-.14.48-.15.511-.16.52-.179.527-.191.5-.168.512-.18.52-.172.492-.168M272.129 136.61l-.059.18-.07.151-.059.118-.082.12-.09.141-.078.192-.132.207-.118.23-.132.262-.079.27-.09.308-.038.332.02.34.058.3.09.29.171.23.207.16.25.09.293-.011.36-.079.379-.18.379-.241.363-.282.308-.289.23-.32.169-.32.09-.297v-.313l-.047-.3-.102-.22-.172-.218-.187-.16-.211-.102-.23-.078-.192-.043h-.34l-.097.031-.02.121.098.07.133.04M278.95 137.05l-.04.141-.11.028-.171.062-.188.11-.25.12-.25.18-.23.207-.262.243-.187.289-.121.28-.063.278.024.242.117.22.172.21.23.18.277.148.293.082.36.04.398-.02.403-.07.378-.122.38-.168.288-.199.25-.23.172-.262.078-.277.051-.282-.05-.28-.079-.302-.172-.257-.226-.25-.274-.22-.32-.202-.328-.188-.34-.172-.34-.14M285.469 128.988l-.149-.078-.101-.031h-.13l-.12.121-.11.262-.097.437-.09.563-.063.75v.86l.02 1.019.02 1.12.042 1.16.04 1.18.09 1.118.058 1.05.133.981.168.86.191.71.207.57"/><path style="fill:none;stroke-width:1.41;stroke-linecap:round;stroke-linejoin:round;stroke:#000;stroke-opacity:1;comp-op:src;clip-to-self:true;stroke-miterlimit:10" d="m273.219 121.05-.098-.019-.082-.09-.07-.082-.078-.109-.07-.11-.083-.12-.078-.11-.148-.172-.133-.136-.117-.153-.114-.14-.058-.098-.09-.09-.102-.09-.058-.07-.09-.063-.078-.078-.094-.058-.137-.063-.152-.05-.21-.04-.227-.039-.262-.02-.27-.03-.308-.032-.32-.027-.34-.02-.332.008-.38.031-.421.06-.418.05-.45.058-.46.082-.461.07-.551.122-.52.129-.507.18-.532.199-.48.21-.48.231-.47.23-.46.25-.442.258-.488.301-.48.3-.532.349-.476.32-.461.332-.403.328-.34.313-.308.308-.238.32-.211.329-.211.332-.211.359-.23.371-.25.399-.297.421-.25.387-.25.422-.25.41-.23.43-.263.48-.23.45-.25.48-.23.488-.258.461-.23.461-.231.45-.211.44-.23.45-.188.46-.172.481-.117.47-.09.5-.043.5v.5l.062.53.09.528.098.52.133.511.117.5.172.5.21.48.259.47.332.46.378.45.418.44.473.45.48.45.547.448.614.422.648.418.692.434.738.379.738.39.774.36.796.328.782.332.8.289.82.328.802.332.82.32.777.348.781.344.758.316.73.332.743.29.738.261.711.23.738.2.711.187.762.192.758.18.762.218.73.203.738.2.72.18.69.14.72.09.69.039.712.011.738-.03.742-.09.777-.102.801-.14.82-.157.84-.121.82-.14.84-.13.84-.101.84-.13.82-.09.82-.12.763-.078.738-.09.71-.113.7-.07.71-.09.7-.07.711-.09.68-.137.648-.141.61-.2.59-.202.57-.239.52-.27.491-.32.461-.378.438-.383.402-.438.418-.441.38-.48.32-.47.292-.511.25-.508.188-.531.191-.57.13-.598.1-.602.09-.66.079-.719.043-.761.027-.809v-.84l-.05-.832-.098-.847-.153-.82-.207-.802-.293-.789-.36-.742-.437-.719-.511-.69-.57-.63-.65-.629-.71-.57-.762-.52-.797-.5-.82-.46-.8-.442-.782-.43-.758-.41-.761-.379-.73-.39-.759-.38-.742-.35-.73-.36-.778-.371-.781-.348-.8-.32-.802-.332-.859-.278-.84-.293-.87-.27-.919-.25-.95-.276-.972-.262-1.008-.262-.98-.27-1.04-.23-2.1-.398-1.09-.14-1.06-.169-1.01-.16-.99-.133-.901-.117-.86-.102-.82-.09-.777-.097-.82-.063-.802-.02-.8.071-.72.168-.69.223"/></svg>
