<svg xmlns="http://www.w3.org/2000/svg" width="816" height="415.741" viewBox="0 0 612 311.806" version="1.2"><path style="stroke:none;fill-rule:nonzero;fill:#fff;fill-opacity:0" d="M0 0h612v311.805H0Zm0 0"/><path style="fill:none;stroke-width:1.41;stroke-linecap:round;stroke-linejoin:round;stroke:#000;stroke-opacity:1;comp-op:src;clip-to-self:true;stroke-miterlimit:10" d="m269.66 128.012-.07.097-.059-.109-.082-.102-.05-.109-.06-.168-.12-.191-.11-.23-.168-.24-.191-.23-.21-.242-.27-.218-.282-.22-.328-.198-.36-.192-.378-.148-.402-.114-.36-.07-.351.012-.32.082-.27.18-.23.289-.15.379-.109.5v.62l.051.688.078.8.13.872.12.91.153.961.097.988.153 1 .129.97.097.98.114.941.097.871.09.809.082.761.04.68.05.66.02.598-.02.52-.02.492v.398l-.03.3v.231l-.04.13-.101.07-.11-.09"/><path style="fill:none;stroke-width:1.41;stroke-linecap:round;stroke-linejoin:round;stroke:#000;stroke-opacity:1;comp-op:src;clip-to-self:true;stroke-miterlimit:10" d="m264.121 137.441.09.059.117.07.133.032.187.039h.192l.27-.051.3-.059.328-.101.453-.14.48-.15.5-.171.528-.18.531-.187.5-.16.508-.18.524-.172.488-.168M272.121 136.41l-.062.168-.07.16-.06.121-.077.11-.09.152-.082.188-.13.21-.128.231-.121.25-.09.281-.082.297-.04.344.02.34.063.297.09.293.16.226.207.152.262.098.289-.008.36-.09.382-.171.379-.25.347-.27.32-.289.231-.32.172-.328.078-.293v-.32l-.039-.29-.101-.219-.168-.218-.192-.16-.21-.114-.227-.066-.192-.043h-.34l-.101.031-.02.121.102.07.129.04M278.941 136.852l-.05.128-.102.04-.168.058-.191.102-.25.129-.25.18-.239.21-.25.242-.191.29-.121.28-.07.27.02.239.132.23.168.21.23.169.27.152.3.09.36.04.402-.02.399-.082.37-.11.38-.168.3-.203.25-.226.169-.262.082-.281.05-.278-.05-.293-.082-.289-.168-.258-.23-.261-.27-.22-.32-.198-.34-.192-.333-.16-.34-.14M285.46 128.79l-.151-.09-.098-.028h-.133l-.129.129-.097.258-.114.43-.078.57-.058.75v.863l.02 1.02.019 1.117.039 1.152.039 1.18.09 1.129.062 1.05.129.98.16.86.192.711.207.559"/><path style="fill:none;stroke-width:1.41;stroke-linecap:round;stroke-linejoin:round;stroke:#000;stroke-opacity:1;comp-op:src;clip-to-self:true;stroke-miterlimit:10" d="m273.21 120.84-.1-.02-.09-.082-.141-.187-.07-.121-.079-.11-.09-.12-.14-.169-.129-.133-.121-.148-.11-.148-.062-.09-.09-.102-.097-.082-.07-.066-.083-.07-.078-.07-.09-.063-.148-.07-.14-.04-.212-.039-.23-.039-.262-.02-.27-.042-.32-.028-.308-.02-.34-.023-.34.012-.371.02-.418.07-.43.05-.441.06-.461.07-.457.082-.55.109-.532.14-.5.18-.531.2-.48.21-.49.23-.46.22-.457.25-.442.27-.492.288-.476.313-.532.34-.48.328-.46.332-.4.316-.34.32-.32.301-.23.332-.21.328-.212.32-.207.372-.23.37-.25.4-.301.417-.25.39-.25.423-.25.41-.238.43-.25.468-.23.461-.25.48-.231.481-.262.469-.23.46-.227.438-.211.442-.23.46-.192.462-.168.468-.133.48-.078.5-.039.5v.5l.059.528.09.524.101.527.129.5.121.512.168.488.211.492.25.469.34.45.379.46.422.442.46.449.489.437.539.453.621.43.648.418.692.43.738.383.73.386.782.352.8.34.782.332.797.289 1.62.648.821.332.781.348.778.332.761.328.73.332.74.29.741.25.707.23.743.199.71.191.758.188.762.191.758.211.73.2.743.199.707.19.703.142.707.078.703.039.707.011.742-.03.738-.079.77-.11.8-.132.821-.16.852-.13.82-.128.84-.133.84-.11.84-.116.82-.102.816-.11.762-.09.738-.081.711-.117.7-.063.71-.09.7-.078.71-.082.68-.14.652-.149.61-.2.59-.198.57-.243.52-.257.488-.332.46-.38.442-.37.399-.45.421-.441.38-.469.32-.469.289-.511.25-.52.191-.52.188-.57.132-.601.098-.598.09-.66.082-.73.039-.75.02-.81v-.85l-.04-.833-.101-.84-.149-.82-.21-.797-.301-.793-.348-.75-.45-.707-.5-.703-.57-.629-.652-.629-.719-.57-.75-.512-.8-.508-.82-.449-.801-.441-.778-.43-.761-.41-.758-.379-.73-.39-.762-.38-.739-.363-.73-.347-.781-.371-.782-.348-.797-.332-.8-.32-.86-.29-.84-.28-.87-.27-.923-.258-.949-.274-.969-.257-1.011-.27-.989-.262-1.03-.23-1.052-.2-1.046-.199-1.102-.152-1.05-.168-1.009-.148-.992-.133-.898-.129-.86-.09-.832-.101-.77-.09-.82-.059-.8-.02-.797.07-.723.169-.687.223M196.57 134.219l-.082.09-.148-.02h-.11l-.058.07-.102.141-.05.09-.079.129-.09.14-.081.16-.098.2-.094.23-.078.29-.09.331-.058.36-.082.41-.07.43-.04.449-.039.453.02.457.058.43.11.382.191.387.25.352.29.308.32.262.378.191.403.118.437.07.512-.008.52-.09.57-.133.55-.199.56-.219.51-.23.462-.25M202.379 135.84l-.07.101-.118.098-.171.11-.149.132-.172.168-.14.192-.149.238-.148.281-.14.32-.09.348-.063.363-.02.368.04.351.081.29.192.26.25.161.277.098.313.043.296-.043.34-.11.313-.168.32-.261.29-.282.25-.328.21-.36.149-.35.09-.36.038-.34-.02-.3-.108-.27-.192-.262-.226-.238-.32-.219-.333-.18-.34-.152-.379-.09-.332-.078-.32-.031-.27-.012-.206.024-.153.046-.039.141.078.07.192.051M208.5 134.559l-.129.101-.21.11-.231.101-.27.11-.25.148-.262.172-.207.187-.16.223-.172.23-.109.239-.059.261v.239l.098.23.172.23.277.169.313.152.379.07.398.008.422-.008.422-.12.379-.13.36-.191.288-.23.301-.25.191-.25.137-.239.07-.23-.02-.2-.089-.191-.168-.21-.21-.212-.31-.2-.34-.198-.382-.16-.399-.16-.421-.122-.38-.129-.359-.12-.308-.09-.23-.079-.153-.082-.059-.097M212.16 126.46l.04.142v.148l.05.21.02.31.082.43.128.59.168.71.211.79.23.839.27.871.301.852.309.82.3.797.29.73.25.66.261.582.23.489.25.36.212.25M219.95 101.75l.062.09v.2l.02.17v.231l.019.297.07.332.059.45.129.5.12.55.15.578.171.614.172.597.156.59.152.551.13.512.081.449.059.398.05.352.02.3-.02.227"/><path style="fill:none;stroke-width:1.41;stroke-linecap:round;stroke-linejoin:round;stroke:#000;stroke-opacity:1;comp-op:src;clip-to-self:true;stroke-miterlimit:10" d="m219.86 101.629-.169-.14-.16-.15-.133-.12-.078-.07-.02-.137.212-.102.226-.09.274-.12.316-.122.371-.078.403-.078.468-.05.442-.032.476-.031h.492l.461.043.418.07.38.137.32.16.23.203.14.226.09.274v.328l-.109.34-.191.36-.27.34-.32.37-.348.34-.402.3-.399.31-.359.218-.32.192-.23.109-.192.05-.117-.007-.07-.172.07-.172M227.898 99.512v.218l-.02.09v.11l-.019.172-.039.207-.05.25-.02.3-.04.32.04.321.02.352.109.359.133.34.16.308.238.262.25.2.25.128.3.082.29.02.29-.04.3-.09.25-.14.23-.172.168-.199.153-.25.078-.238v-.262l-.02-.238-.148-.23-.18-.243-.242-.187-.27-.184-.32-.156-.328-.133-.36-.11-.34-.077-.331-.082-.34-.07-.25-.052-.23-.058-.15-.02M234.969 99.59l-.149.031-.12-.012-.188-.007-.172.02-.192.05-.207.058-.21.098-.231.14-.191.18-.168.211-.13.243-.1.289-.06.3.02.34.04.367.1.332.188.34.242.27.29.219.289.152.32.09.32.027.27-.02.25-.09.23-.148.192-.172.128-.238.079-.219-.02-.242-.059-.27-.128-.269-.192-.262-.23-.25-.27-.238-.34-.23-.34-.25-.351-.211-.36-.219-.34-.2-.327-.19-.282-.169-.25-.132-.172-.09-.097-.059M238.762 93.738l-.153-.078-.058-.09-.063.09-.047.18-.043.3-.02.419-.019.53-.02.61.02.672.063.75.09.777.097.774.11.758.082.718.078.66.07.641.063.61.039.543.09.468.058.352.082.219M272.66 90.809l.059-.16.043-.258.02.148-.02.172v.21l-.043.227-.02.301-.058.34-.051.383-.04.469-.081.507-.04.57-.09.602-.058.59-.043.57-.027.508.05.453.079.368.11.3.14.243.191.16.207.078.262.031.25-.062.27-.11.28-.18.231-.257.25-.293"/><path style="fill:none;stroke-width:1.41;stroke-linecap:round;stroke-linejoin:round;stroke:#000;stroke-opacity:1;comp-op:src;clip-to-self:true;stroke-miterlimit:10" d="m269.672 95.02.148-.04.121-.101.207-.149.301-.18.332-.21.418-.238.45-.243.48-.238.531-.25.52-.223.55-.207.61-.21.59-.172.61-.149M278.3 93.898l-.241.153-.207.11-.211.089-.141.121-.129.149-.082.21-.07.23-.04.278.04.293.09.297.14.281.211.25.238.23.274.173.316.148.293.078.32.032.29-.032.289-.09.28-.117.212-.18.148-.203.102-.218.058-.25v-.239l-.058-.242-.133-.258-.16-.242-.207-.23-.262-.219-.27-.21-.269-.2-.281-.18-.25-.16-.192-.11-.168-.09M285.79 94.14l-.13-.011-.191-.027-.25-.051-.25-.031h-.278l-.27.011-.25.078-.241.07-.18.122-.172.168-.11.18-.077.25-.04.292.02.32.098.329.191.32.27.27.3.23.34.192.309.117.32.09.29.02.3-.079.25-.09.23-.148.192-.172.129-.18.082-.219.039-.23-.04-.25-.081-.25-.13-.262-.19-.258-.23-.261-.302-.25-.289-.25-.32-.211-.29-.188-.25-.14-.26-.11-.18-.07-.13-.063M290.71 86.559l-.132.101-.098.168-.109.25-.101.402-.09.532-.04.668-.038.8-.024.86-.02.93v1.832l.044.878.039.82.039.79.05.71.04.579.02.473M323.871 86.441l-.043.11-.129-.012-.12-.039-.169-.11-.11-.081-.12-.11-.11-.129-.082-.129-.09-.16-.078-.16-.11-.172-.1-.18-.15-.18-.151-.148-.18-.16-.219-.133-.25-.097-.25-.082h-.289l-.3.031-.321.148-.328.211-.344.27-.308.36-.301.44-.23.512-.169.649-.12.738-.052.844-.02.957.02.973.024.988.027.941.04.899.042.808.059.73.09.641.082.563.09.5.039.418.02.332.019.277-.04.2-.07.152-.101.097-.149.032-.148-.008"/><path style="fill:none;stroke-width:1.41;stroke-linecap:round;stroke-linejoin:round;stroke:#000;stroke-opacity:1;comp-op:src;clip-to-self:true;stroke-miterlimit:10" d="M316.7 94.102v-.114l.081-.097.23-.07.208-.012h.261l.31.011.382.02.437.05.512.051.52.04.55.05.547.008h1.114l.527-.027.48-.07M324.398 94.07l-.207.18-.191.18-.21.199-.188.191-.192.22-.129.241-.101.25-.07.27-.04.258.02.242.07.219.121.18.168.171.211.129.25.09.3.031.27-.031.282-.11.27-.128.23-.18.187-.203.13-.2.062-.21.02-.22-.02-.21-.09-.2-.121-.23-.192-.199-.207-.172-.25-.156-.21-.133-.212-.07-.187-.059-.133-.05.23.109.231.062M328.29 95.25l-.04.09-.172.012-.11.046-.116.082-.153.11-.129.172-.12.16-.09.2-.04.23-.02.226.02.262.09.238.14.211.188.18.211.133.242.097.25.051h.27l.27-.05.257-.13.274-.16.207-.191.191-.23.168-.22.102-.23.05-.238v-.23l-.09-.262-.12-.23-.192-.227-.238-.211-.23-.2-.25-.203-.25-.16-.231-.117-.23-.09M334.46 91.691l-.108.04-.153.078-.14.082-.149.168-.148.27-.133.382-.117.46-.09.54-.082.559-.04.609-.038.621-.024.602v.59l-.027.519-.02.508-.02.43-.062.351"/><path style="fill:none;stroke-width:1.41;stroke-linecap:round;stroke-linejoin:round;stroke:#000;stroke-opacity:1;comp-op:src;clip-to-self:true;stroke-miterlimit:10" d="m332.48 95.781.098.047.133.024.187.007.25.02.34.012.383.007.399.012h.44l.462-.039.437-.11M348.172 114.09l.066-.07v-.11l-.066-.16-.102-.18-.129-.172-.14-.199-.422-.36-.238-.179-.27-.172-.27-.168-.3-.18-.313-.14-.277-.129-.25-.11-.23-.05-.231-.04h-.191l-.188.048-.152.133-.117.187-.114.29-.058.362-.051.438-.02.531.02.61.031.66.102.699.148.723.149.718.14.692.153.66.109.61.098.546.152.5.059.434.058.367.05.312v.25l-.019.188-.05.121-.118.078h-.152"/><path style="fill:none;stroke-width:1.41;stroke-linecap:round;stroke-linejoin:round;stroke:#000;stroke-opacity:1;comp-op:src;clip-to-self:true;stroke-miterlimit:10" d="m341.95 118.941-.09-.101v-.14l.09-.09.14-.04.262-.039.289-.02H343l.422.028.476.063.532.109.61.129.608.11.653.128.629.094.629.058.57.06M351.73 120.09l-.19.05-.188.06-.211.03-.23.07-.231.06-.23.109-.212.152-.187.188-.153.222-.128.23-.06.25v.25l.08.259.151.242.188.207.25.152.281.09.309.02.34-.06.363-.112.36-.188.327-.242.32-.3.25-.31.212-.328.129-.312.082-.32v-.34l-.043-.328-.11-.332-.16-.34-.219-.297-.25-.3-.23-.25-.25-.18-.211-.133-.188-.09M357.941 120l.118.04.132-.071-.02-.219-.062-.102-.129-.078-.19-.101-.25-.09-.321-.11-.309-.09-.3-.038-.29.007-.25.043-.242.09-.187.14-.141.169-.09.238-.039.281-.02.27.02.312.059.29.129.269.152.27.187.23.192.21.23.15.25.09.25.038.23-.027.24-.063.19-.117.18-.14.168-.172.094-.207.078-.184.04-.168.019-.148.03-.102-.03-.14.07.18.062.171.11.219.12.23.169.23.25.25.281.24.328.16.38.128.382.05.379-.019.398-.07.364-.18M363.809 115.262l.043.168.02.16-.02.27.02.39.019.54.039.67.03.74.04.788.078.813.133.777.168.73.21.672.212.63.23.53.207.419M351.16 140.941l-.12-.03-.071-.083-.04-.09-.058-.117-.07-.09-.063-.11-.078-.112-.039-.11-.09-.148-.082-.13-.09-.14-.058-.14-.082-.11-.11-.133-.097-.09-.153-.097-.129-.11-.171-.081-.188-.06h-.191l-.16.04-.192.102-.187.128-.192.192-.168.277-.172.39-.12.513-.11.66-.02.808.04.942.09 1.027.14 1.063.152 1.039.149 1.02.172.96.097.91.082.84.07.738.06.641.058.52.05.44.02.321.02.2v.128l-.13-.097-.148-.121"/><path style="fill:none;stroke-width:1.41;stroke-linecap:round;stroke-linejoin:round;stroke:#000;stroke-opacity:1;comp-op:src;clip-to-self:true;stroke-miterlimit:10" d="m345.61 149.398.171.063.188.039.27.04.34.081.401.05.399.028h.48l.48-.058.532-.102.55-.14.5-.18.509-.188.46-.222.4-.23.339-.259M352.738 147.8l-.058.2-.04.16-.05.14-.04.16-.019.18-.02.212-.042.207-.02.21-.05.18-.02.192v.199l.05.21.083.22.148.218.211.184.23.129.27.07.3.02.329-.051.379-.121.36-.168.382-.242.34-.258.27-.281.23-.31.187-.3.102-.3.05-.301-.05-.27-.102-.25-.148-.238-.23-.2-.27-.203-.32-.148-.34-.09-.328-.058h-.301l-.27.046-.191.07-.102.09-.07.133.024.118.09.101.136.121.242.078.309.051M361.512 147.86l-.024-.09-.02-.16-.019-.141-.02-.11-.038-.097-.063-.102.043.13.02.17.039.25.039.29.043.36.066.41.063.41.058.41.11.379.101.34.149.312.152.258.168.191.21.14.212.071.23.02.27-.04.258-.081.27-.149.25-.191.23-.2.23-.218.191-.23.149-.212.152-.21.078-.22.09-.21.063-.23.039-.25v-.25l-.02-.258-.02-.282-.023-.261-.039-.258-.07-.262-.04-.2-.058-.179-.043-.101-.066-.098-.043.148V147l-.02.172v.148M368.86 142.41l.1-.191.11-.188.13-.21.1-.18.11-.13.078-.12.063-.082.02.12-.02.212.02.347.019.473.05.59.02.668.02.722.058.73.114.708.136.7.133.66.149.671.101.621.129.61.148.57.082.508.09.46.078.38.043.28.04.231.05.149M336.559 172.7l.043-.122.058-.328.031-.121v-.14l.079-.079-.04-.11-.02-.12-.019-.14-.03-.188-.06-.204-.081-.218-.09-.239-.121-.242-.258-.437-.14-.211-.15-.172-.152-.16-.14-.098-.149-.07-.11-.04-.1.009-.09.07-.079.14-.132.25-.079.38-.09.468-.038.602v.699l.039.77.09.831.097.848.133.832.11.828.1.782.06.77.07.75.039.69.02.649.038.59.024.531.047.441.02.387.042.32.02.243v.168l.02.113-.13-.043"/><path style="fill:none;stroke-width:1.41;stroke-linecap:round;stroke-linejoin:round;stroke:#000;stroke-opacity:1;comp-op:src;clip-to-self:true;stroke-miterlimit:10" d="m333.02 178.82.128.008.172.031.211.082.25.079.297.058.352.063.379.02.453.019.457-.02.52-.07.511-.121.531-.168.5-.192.48-.218.489-.23.398-.24M341.059 178.46l-.059.231-.078.207-.133.18-.148.192-.172.199-.117.23-.133.25-.098.262-.07.27-.04.269v.27l.06.289.109.261.191.25.188.192.25.129.293.058.296-.02.364-.07.347-.16.34-.21.32-.259.29-.289.21-.28.172-.29.079-.27v-.273l-.04-.277-.101-.262-.168-.27-.211-.28-.25-.25-.3-.239-.29-.191-.3-.168-.27-.141-.27-.078-.218-.063h-.274l-.078.102M345.54 178.61l-.08.109v.12l.04.173.07.258.059.28.062.329.02.34.039.351.05.328.04.301.039.262.043.23.02.18.027.117M345.309 174.328l-.098-.18-.09-.218-.043-.211v-.188l.043-.133.05-.097.079-.063.25-.097.172-.012.187-.02.23-.007h.192M349.898 172.559l.043.191-.02.191-.023.258-.02.301-.019.39v2.41l.02.74.02.741.042.75.07.73.079.7.129.648.062.59.098.531.09.43.062.328.09.242M302.18 191.75l-.02.121-.02-.101.04-.09v-.48l-.02-.15-.02-.179-.07-.21-.12-.212-.15-.219-.171-.218-.207-.23-.23-.25-.25-.231-.282-.192-.27-.168-.32-.101-.289-.059h-.34l-.312.059-.277.148-.274.223-.207.289-.191.379-.168.46-.082.552-.09.64-.02.719v.79l.09.831.14.828.188.84.23.8.212.77.218.75.18.692.172.64.172.59.168.52.172.46.148.41.14.34.13.298.082.222.066.168.024.13-.09.093"/><path style="fill:none;stroke-width:1.41;stroke-linecap:round;stroke-linejoin:round;stroke:#000;stroke-opacity:1;comp-op:src;clip-to-self:true;stroke-miterlimit:10" d="M296.75 199.02v.109l.172.07.137.02.191.07.238.082.274.07.308.079.36.039.379.011.882-.039.47-.031.46-.07.48-.078.489-.09.46-.133M304.68 198.621l-.078.14-.133.118-.149.09-.14.11-.149.081-.133.11-.117.14-.152.168-.11.211-.078.211-.062.23-.02.239.02.23.043.23.129.22.16.18.21.171.298.102.293.058.36-.02.32-.09.328-.152.32-.199.289-.219.242-.261.16-.27.09-.258.02-.261-.04-.25-.113-.258-.148-.242-.211-.23-.23-.2-.27-.191-.27-.16-.28-.11-.25-.09-.227-.039-.211-.02h-.153l-.129.09.07.098.102.14.149.122.21.129.231.101M308.762 198.86l.11.062h-.11l-.102.168-.02.172-.019.207v.25l.04.27.077.261.133.25.129.219.14.16.169.14.171.09.211.032.207-.012.23-.07.212-.11.21-.168.231-.172.168-.199.192-.2.168-.17.113-.169.098-.14.039-.13.02-.113.023-.148.148.101.059.09.132.098.11.09.14.07.168.04.172.01.188-.03.191-.07.192-.118.168-.18.171-.18.137-.261.133-.27.098-.3.05-.309.04-.32.023-.301v-.578l-.063-.281-.09-.29-.148-.28-.16-.301M315.879 192.629l.043.11v.152l.039.129.039.199.02.261.05.34.02.39.02.462.038.5.024.539.058.578.051.582.04.61.058.597.02.602.042.582.09.508.04.468.077.41.07.313M239.469 197.27l.07-.16.02-.169.043-.16.039-.172.07-.148.059-.18.082-.18.07-.152.039-.148.078-.13.04-.202.05-.117-.09.168-.059.27-.09.382-.062.5-.02.527-.038.59v.633l.02.61.062.616.109.582.117.52.152.45.168.37.172.282.211.207.207.113.23.027.25-.05.231-.118.242-.18.23-.21.227-.262.211-.27.192-.289.148-.261.102-.25.09-.207.039-.18v-.152l.02-.09-.09.11v.48l.05.3.078.328.114.32.136.313.172.27.192.21.207.13.21.058.231-.008.21-.082.278-.148.23-.23.25-.31.27-.362.211-.418.242-.45.188-.46.121-.43.11-.43.038-.402-.02-.36-.07-.347-.097-.32-.172-.301-.168-.27-.172-.23-.18-.172-.148-.117-.152-.063-.149.02-.082.062M249.469 198.7l-.09.07-.16-.008-.11-.012-.129.02-.101.058-.129.133-.121.168-.11.223-.097.277-.07.32-.043.36.02.351.07.352.12.34.172.289.188.25.21.18.212.128.21.051.188.02.172-.051.168-.11.14-.16.15-.21.151-.239.122-.27.09-.289.078-.312v-.309l-.02-.3-.059-.29-.09-.289-.14-.28-.172-.263-.168-.257-.172-.22-.168-.16-.12-.14-.13-.09-.12.02.038.16.082.11M254.809 199.441l.113.04-.152-.083-.13-.02-.14.02-.191.032-.207.082-.23.097-.243.11-.18.152-.187.16-.133.2-.129.238-.078.261-.043.29.02.3.101.29.148.288.211.25.27.223.3.16.34.09.333.04.32-.052.34-.109.308-.16.32-.23.29-.27.27-.29.241-.34.16-.331.13-.34.058-.34-.02-.308-.058-.313-.152-.289-.188-.27-.23-.257-.27-.262-.3-.23-.29-.18-.32-.149-.25-.09-.25-.05-.152-.02-.13.028M261.531 193.691l-.133-.011-.078-.07.078.14.063.121.039.14.09.16.058.24.09.3.063.379.039.469.058.562.07.649.044.73.058.762.02.777.02.77v.722l-.02.668v.602l-.02.527v.473l.02.398v.313l.07.218.078.122.133.027.14-.059M213.21 165.121l-.062-.082-.058-.078-.09-.082-.078-.11-.113-.12-.118-.118-.132-.12-.149-.141-.14-.13-.192-.14-.187-.148-.211-.102-.211-.09-.25-.05-.239-.032-.25.024-.25.07-.23.156-.191.262-.188.36-.133.491-.078.59-.039.7.02.828.078.921.133 1.02.168 1.02.19 1.02.18.991.212.88.187.8.172.7.168.577.133.492.117.399.07.312.02.25v.149"/><path style="fill:none;stroke-width:1.41;stroke-linecap:round;stroke-linejoin:round;stroke:#000;stroke-opacity:1;comp-op:src;clip-to-self:true;stroke-miterlimit:10" d="m208.578 173.91-.02.121.07.14.102.079.192.07.187.051.25.02.282-.012.289-.078.32-.121.352-.16.378-.18.38-.192.402-.218.379-.211.379-.207.378-.211M215.07 172.531l-.05.188-.079.18-.082.18-.09.19-.078.18-.09.192-.062.21-.059.208-.02.191-.03.2v.171l.03.14.04.16.102.13.148.097.148.051.192-.008.172-.05.16-.11.187-.152.153-.207.168-.242.12-.27.11-.262.059-.238.05-.25-.05-.238-.078-.223-.11-.21-.14-.169-.172-.172-.168-.128-.192-.07h-.21l-.169.05-.171.11-.098.16-.09.18-.043.21.024.2M219.34 173.488l-.11-.129-.082-.058-.109-.04-.098-.011-.113.031-.148.168-.04.16-.038.2v.23l.02.23.108.231.168.219.211.191.23.14.231.122.27.078.25.031.262-.011.25-.079.207-.113.191-.156.148-.184.082-.207.02-.23-.02-.25-.101-.27-.149-.261-.171-.27-.207-.25-.211-.262-.25-.207-.262-.191-.23-.168-.208-.102-.191-.07-.172-.031.031.14M225.879 172.578l.09-.11v-.128l-.07-.13-.098-.151-.13-.11-.151-.07-.192-.078-.226-.063-.23-.066-.212-.05-.23-.013-.211.032-.168.09-.13.148-.081.18-.04.23v.281l.04.309.082.32.148.29.211.261.188.21.25.18.242.122.23.058.25.008.23-.058.208-.122.21-.187.15-.27.152-.32.097-.402.063-.457.027-.524v-.558l-.027-.621-.04-.668-.1-.68-.15-.723-.21-.687-.301-.7-.371-.73-.399-.73-.492-.72-.457-.651-.46-.579-.38-.48-.34-.313-.273-.199M232.66 112.45l-.191.038-.149.024h-.25l-.129.039-.132.05-.137.09-.133.11-.148.09-.211.09-.192.09-.226.09-.23.1-.25.11-.27.14-.34.15-.383.148-.48.14-.57.14-.68.15-1.547.28-.84.13-.871.101-.88.102-.882.046-.95.032-.968.02-.973-.04-.898-.07-.84-.149-.781-.203-.738-.238-.743-.309-.707-.332-.742-.379-.73-.421-.68-.48-.629-.509-.59-.55-.52-.59-.472-.61-.348-.64-.28-.692-.212-.718-.148-.77-.059-.8-.02-.802.079-.789.172-.77.297-.76.402-.79.52-.809.66-.84.8-.85.918-.868 1.07-.902 1.22-.93 1.37-.961 1.5-.93 1.602-.91 1.68-.867 1.719-.781 1.789-.692 1.793-.558 1.789-.422 1.808-.309 1.77-.172 1.703-.039 1.637.04 1.562.16 1.469.21 1.41.32 1.328.4 1.203.472 1.09.578.95.64.82.731.668.79.53.831.4.86.25.898.132.93.02.98-.13 1.02-.292 1.03-.418 1.032-.57 1.027-.68.98-.82.974-.88.918-.953.878-1.007.84-.993.793-1.046.719-1.07.64-1.141.54-1.2.468-1.242.364-1.3.308-1.329.258-1.261.223-1.22.18-1.16.18-1.07.128M280.379 100.54v.16l-.09.109-.117.171-.152.168-.23.172-.27.18-.34.148-.36.141-.379.152-.46.118-.532.12-.61.083-.71.027-.777-.039-.84-.102-.89-.148-.923-.18-.93-.199-.968-.23-.942-.243-.988-.25-1.012-.296-.968-.32-.922-.384-.867-.437-.75-.5-.68-.55-.594-.641-.5-.68-.418-.77-.32-.808-.211-.84-.04-.89.102-.884.297-.878.48-.88.653-.84.828-.85.98-.848 1.141-.852 1.309-.879 1.43-.851 1.55-.848 1.711-.832 1.828-.809 1.93-.8 2.024-.77 2.07-.711 2.098-.648 2.128-.532 2.102-.441 2-.277 1.871-.133 1.79.05 1.62.2 1.54.3 1.378.41 1.27.512 1.18.59.98.707.89.832.762.942.578 1.02.47 1.09.273 1.128.109 1.121-.07 1.14-.211 1.13-.352 1.09-.469 1.078-.59 1.05-.69 1.012-.798.95-.93.91-1.03.847-1.11.793-1.27.758-1.32.723-1.41.636-1.52.582-1.57.461-1.672.309-1.699.2-1.73.062-1.68-.063-1.559-.148-1.453-.243-1.367-.296-1.262-.364-1.219-.43-1.14-.5M327.129 102.79l-.23-.04-.208-.04-.23-.062-.25-.039-.34-.058-.422-.102-.508-.14-.613-.16-.707-.2-.762-.219-.84-.21-.859-.23-.89-.24-.942-.26-.95-.302-.929-.347-.918-.391-.84-.422-.8-.457-.743-.531-.668-.57-.59-.66-.511-.712-.438-.789-.34-.84-.25-.87-.12-.899-.051-.95.129-.94.23-.919.36-.902.46-.86.61-.82.781-.77.95-.737 1.07-.704 1.242-.648 1.308-.621 1.39-.57 1.47-.489 1.511-.37 1.598-.25 1.602-.098 1.597.039 1.582.18 1.508.308 1.461.46 1.36.552 1.292.648 1.149.723 1.082.789.969.86.84.94.75.977.64 1.031.5 1.02.379 1.031.27 1.012.128.969-.02.968-.187.95-.32.91-.46.89-.59.84-.762.781-.88.758-1.03.703-1.098.649-1.172.59-1.27.53-1.3.481-1.368.418-1.41.332-1.39.239-1.32.14-1.243-.011-1.137-.118-.992-.21-.86-.34M358.04 126.71l-.169.09-.16.06-.191.062-.211.078-.23.102-.298.07-.672.168-.398.09-.422.09-.45.07-.46.039-.52-.008-.609-.031-.68-.07-.73-.098-.82-.133-.872-.129-.898-.148-.969-.184-1.011-.226-1.051-.262-1.078-.328-1.032-.332-.937-.34-.91-.399-.782-.402-.71-.48-.63-.508-.55-.57-.48-.622-.38-.71-.3-.72-.168-.75-.043-.769.133-.75.27-.75.456-.73.613-.692.758-.68.91-.648 1.051-.62 1.2-.61 1.3-.57 1.41-.5 1.5-.489 1.551-.43 1.649-.382 1.699-.309 1.75-.2 1.761-.109 1.75-.02 1.7.079 1.672.14 1.546.239 1.5.312 1.372.38 1.242.449 1.18.53 1.046.59.942.66.82.74.66.788.54.832.402.852.296.867.211.89.082.872-.02.87-.151.829-.25.75-.38.71-.5.622-.628.566-.782.543-.84.508-.968.48-1.05.43-1.122.371-1.2.282-1.222.218-1.2.13-1.128.081-1.14.047-1.07-.027-.97-.102M358.93 156.8l.101.04-.082-.09h-.129l-.191.04-.23.05-.31.039-.398.07-.492.04-.57.05-.649.031h-.742l-.84-.011-.918-.008-.992-.04-1.027-.07-1.102-.101-1.129-.16-1.16-.211-1.18-.27-1.14-.328-1.05-.39-.99-.481-.901-.531-.84-.64-.739-.72-.652-.808-.547-.88-.46-.933-.36-.968-.27-1-.191-1.008-.09-1.032-.02-1.02.13-.972.27-.898.44-.84.66-.79.86-.741 1.09-.7 1.308-.68 1.493-.64 1.64-.629 1.79-.558 1.94-.5 2.04-.422 2.12-.3 2.15-.2 2.1-.121 2.067-.04 1.973.012 1.918.059 1.851.11 1.81.19 1.75.22 1.66.3 1.51.399 1.368.492 1.184.617 1.008.762.84.86.699.98.52 1.07.362 1.129.207 1.172.043 1.148-.101 1.121-.262 1.09-.398 1.07-.54 1.051-.68 1-.8.989-.922.93-1.047.878-1.18.844-1.261.777-1.39.73-1.41.673-1.45.59-1.48.5-1.489.359-1.5.258-1.43.12-1.41.012-1.32-.132-1.2-.27-1.14-.39M342.488 187.77l-.226-.04-.274-.05-.316-.07-.332-.11-.36-.078-.359-.113-.402-.118-.438-.152-.531-.2-.59-.23-.648-.238-.73-.281-.743-.3-.82-.349-.84-.43-.89-.48-.919-.531-.91-.59-.86-.62-.84-.669-.741-.742-.649-.777-.61-.84-.491-.864-.418-.867-.332-.832-.207-.77-.09-.718.09-.66.207-.602.351-.578.551-.57.7-.602.898-.629 1.101-.648 1.282-.672 1.468-.629 1.621-.61 1.73-.59 1.81-.542 1.87-.5 1.868-.43 1.902-.328 1.848-.23 1.812-.11h1.79l1.699.13 1.601.237 1.41.364 1.2.488 1.007.602.801.726.59.883.441 1 .27 1.117.11 1.223-.071 1.3-.207 1.36-.332 1.437-.512 1.43-.629 1.461-.758 1.45-.921 1.433-1.032 1.398-1.136 1.34-1.204 1.238-1.277 1.114-1.262 1.008-1.308.902-1.281.77-1.31.667-1.339.5-1.351.34-1.372.14-1.386-.089-1.301-.262-1.2-.457-1.07-.64-.953-.79-.84-.953M310.93 207.281l-.102.328-.168.282-.21.23-.212.18-.258.129-.25.082-.359.058-.441.008-.52-.047-.61-.07-.679-.11-.691-.14-.758-.152-.82-.168-.883-.22-.95-.26-.968-.31-1.012-.351-1.008-.398-1.011-.461-1.051-.5-1.047-.563-1.05-.629-1.013-.668-.93-.761-.859-.81-.742-.858-.648-.961-.508-1-.332-1.032-.238-1.05-.043-1.09.09-1.098.25-1.133.44-1.16.61-1.117.801-1.133.988-1.078 1.121-1.012 1.22-.968 1.343-.891 1.43-.828 1.52-.75 1.597-.63 1.66-.55 1.7-.441 1.71-.328 1.723-.211 1.668-.051 1.601.09 1.489.308 1.41.461 1.3.66 1.2.782 1.101.918 1.028 1.03.941 1.09.89 1.13.82 1.171.778 1.168.692 1.133.61 1.18.53 1.14.399 1.098.25 1.09.062 1.02-.12 1.02-.302.972-.46.98-.63.98-.8.93-.95.918-1.09.871-1.238.782-1.41.707-1.52.601-1.55.54-1.563.449-1.468.37-1.41.282-1.329.168-1.242.05-1.12-.077M254.352 208.86l-.063.109-.129.05-.191.032-.188.008-.21.011-.29-.02-.32-.07-.422-.12-.46-.15-.548-.151-.59-.16-.671-.2-.782-.21-.84-.259-.949-.3-1.008-.32-1.011-.348-1.051-.41-1.07-.422-1.098-.48-1.11-.552-1.14-.57-1.16-.668-1.09-.691-1.102-.77-1.007-.808-.922-.801-.801-.828-.61-.793-.44-.77-.259-.75-.058-.75.11-.738.269-.711.46-.73.63-.75.8-.77.969-.828 1.121-.844 1.32-.816 1.52-.813 1.7-.73 1.827-.668 1.922-.59 1.95-.473 1.96-.418 1.961-.32 1.93-.23 1.879-.141 1.851.012 1.739.129 1.691.308 1.559.48 1.36.622 1.241.77 1.098.859.95.98.862 1.07.73 1.141.61 1.191.45 1.22.289 1.21.109 1.219-.09 1.219-.23 1.203-.36 1.187-.5 1.16-.61 1.11-.698 1.062-.801 1.008-.88.922-.948.828-1.032.723-1.09.648-1.18.57-1.241.47-1.29.402-1.34.226-1.308.102-1.281-.07-1.262-.22-1.199-.37-1.117-.489-1.031-.64"/><path style="fill:none;stroke-width:1.41;stroke-linecap:round;stroke-linejoin:round;stroke:#000;stroke-opacity:1;comp-op:src;clip-to-self:true;stroke-miterlimit:10" d="m220.16 182.371-.23.23-.32.137-.36.032-.398-.008-.48-.082-.513-.078-.609-.082-.672-.11-.777-.101-.86-.13-.91-.14-.98-.168-1.012-.18-1.039-.261-1.09-.258-1.07-.313-1.102-.359-1.066-.41-1.07-.5-1.082-.578-1.051-.633-1.028-.707-.972-.813-.86-.828-.757-.902-.633-.938-.457-.953-.274-1.02-.11-1.077.134-1.13.308-1.202.551-1.23.758-1.278.941-1.27 1.16-1.242 1.258-1.2 1.434-1.1 1.539-.989 1.598-.898 1.68-.774 1.73-.656 1.77-.57 1.722-.454 1.75-.328 1.7-.23 1.64-.121 1.62-.008 1.52.09 1.45.289 1.347.48 1.262.649 1.14.82 1.032.961.898 1.059.782 1.152.648 1.23.531 1.239.38 1.332.269 1.34.11 1.359-.028 1.367-.192 1.3-.308 1.313-.48 1.258-.59 1.23-.723 1.22-.778 1.152-.82 1.07-.883.98-.93.84-.968.72-1.031.57-1.07.417-1.09.301-1.16.192-1.137.078-1.18.05-1.172-.058-1.14-.133-1.141-.226M208.578 145.54l-.078.151-.172.098-.187.07-.25.09-.27.063-.3.078-.4.09-.5.058-.593.09-.7.05-.769.052-.828.058-.793.032-.867.05-.86-.058-.882-.102-.95-.191-.929-.27-.922-.347-.93-.391-.918-.461-.91-.55-.898-.579-.89-.7-.802-.792-.73-.879-.61-.898-.53-.961-.4-1-.21-1.012-.102-1.05.082-1.04.211-1.05.399-1.079.55-1.082.712-1.098.886-1.12 1.012-1.13 1.129-1.12 1.223-1.098 1.308-1.032 1.34-.921 1.39-.797 1.41-.66 1.41-.532 1.43-.41 1.43-.3 1.43-.169 1.441-.101h1.399l1.441.082 1.43.219 1.43.32 1.41.437 1.41.551 1.36.61 1.269.722 1.18.809.98.89.828.98.692 1.04.53 1.07.372 1.11.207 1.129.05 1.14-.148 1.14-.32 1.122-.5 1.14-.633 1.149-.758 1.129-.898 1.14-1.012 1.083-1.12 1.02-1.22.948-1.351.828-1.41.75-1.47.641-1.487.55-1.41.43-1.352.31-1.238.19-1.141.06-1.09-.067-1.031-.203"/><path style="fill:none;stroke-width:1.41;stroke-linecap:round;stroke-linejoin:round;stroke:#000;stroke-opacity:1;comp-op:src;clip-to-self:true;stroke-miterlimit:10" d="m256.39 131.34-.23.082-.21.058-.302.051-.367.059-.453.031-.5.059-.629.039-.738.09-.84.09-.992.113-1.11.11-1.218.14-1.332.16-1.43.137-1.5.191-1.55.2-1.637.23-1.73.261-1.77.258-1.832.262-1.848.27-1.832.257-1.79.25-1.741.25-1.649.25-1.57.223-1.43.148-1.27.09-1.05-.02-.8-.109-.552-.18-.328-.218-.039-.23.23-.301.477-.332M239.66 107.91l-.14-.129-.13-.133-.152-.128-.078-.09h-.11l-.019.101.02.188.07.25.117.3.23.38.34.44.462.52.59.57.652.641.738.72.82.82.86.93.93 1.05.968 1.148.992 1.23.989 1.25.941 1.25.91 1.231.86 1.153.8 1.078.782 1 .777.89.75.782.723.648.628.5M282.102 103.012l-.122.02-.109-.012-.043.23.024.309.058.421.05.551.02.66.04.797v3.274l-.02 1.289-.02 1.34-.07 1.347-.101 1.383-.11 1.348-.097 1.332-.114 1.27-.039 1.23-.039 1.148-.02 1.082.02.969M301.898 124.43l-.039.11-.058.081.039-.14.129-.141.21-.23.333-.329.43-.422.519-.57.629-.73.762-.848.859-.98.969-1.11 1.09-1.21 1.199-1.31 1.25-1.351 1.261-1.39 1.239-1.41 1.222-1.438 1.239-1.492 1.261-1.5 1.329-1.54 1.332-1.492 1.277-1.41 1.2-1.238 1.05-1.059.93-.902.75-.738.66-.653.543-.508.398-.378.262-.243M304.2 133.89l-.071-.16-.078-.152-.063-.148-.039-.121-.027-.098-.024-.172-.02-.11v-.1l.02-.138.07-.14.141-.13.243-.151.308-.149.418-.172.492-.199.578-.23.743-.27.879-.29 1.039-.32 1.222-.359 1.34-.441 1.52-.531 1.68-.598 1.788-.672 1.871-.738 1.98-.73 2-.743 2.02-.7 2.02-.667 1.91-.61 1.77-.581 1.601-.5 1.489-.442 1.351-.379 1.258-.3 1.18-.27 1.101-.219.961-.21.848-.2.691-.14.512-.09.308-.04M304.219 142.5l-.23-.04-.278-.019-.25-.05-.27-.063-.23-.078-.211-.059-.172-.05-.168-.04-.148-.042-.102-.059-.129-.078.168-.07.25-.012h.38l.48.02.66.038.8.07.922.102 1.07.13 1.227.152 1.32.148 1.41.121 1.493.117 1.578.121 1.64.11 1.65.101 1.722.121 1.77.118 1.788.09 1.813.113 1.777.09 1.692.07 1.62.129 1.509.16 1.41.2 1.308.25 1.153.269 1.007.34.852.32.73.32.61.34.488.309.402.34.31.32.26.27.18.23.149.191.133.14.148.122.14.078M297.84 145.941l.191-.011.188-.051.21-.027h.231l.3.09.38.136.441.262.48.32.548.41.613.48.648.552.72.636.8.73.879.813.93.84.992.89 1.007.9 1.012.96 1.05 1 1.071 1.05 1.117 1.118 1.172 1.121 1.23 1.149 1.24 1.132 1.26 1.13 1.278 1.09 1.274 1.077 1.257 1.043 1.243 1.028 1.218 1.011 1.18.97 1.11.929.992.87.859.802.758.699.652.648.57.582.508.508.403.453.289.348.23.262.149.187.109.094.101.058.13-.14M289.129 149.602l.11.109.081.078.09.152.04.11.1.18.13.25.148.3.192.367.16.442.21.488.239.594.293.656.34.762.418.851.441.97.5 1.058.508 1.133.5 1.218.531 1.258.512 1.332.52 1.371.546 1.438.551 1.441.563 1.45.57 1.44.547 1.41.55 1.4.56 1.402.55 1.41.55 1.387.571 1.39.5 1.301.531 1.25.457 1.148.403 1.07.398 1.02.34.942.332.87.277.778.23.64.212.493.172.3.168.13.12-.032.13-.187.101-.344.07-.457v-.633l-.07-.738M274.02 148.469l.05-.117v-.282l-.02-.09-.05-.101-.059-.098-.132.098-.079.14-.128.231-.122.32-.19.442-.188.52-.192.609-.191.71-.23.75-.278.81-.29.87-.32.91-.351 1.028-.398 1.152-.422 1.25-.489 1.32-.5 1.387-.57 1.371-.633 1.38-.648 1.421-.68 1.398-.629 1.403-.59 1.39-.59 1.38-.59 1.327-.562 1.293-.59 1.239-.55 1.18-.528 1.16-.48 1.101-.461 1.04-.399.987-.382.91-.36.801-.25.68-.21.52-.11.351v.2h.21l.192-.188.188-.274.23-.359.23-.398M266.64 145.379l-.109.07h-.191l-.102-.02h-.11l-.116.02-.172.051-.13.031-.17.028-.18.03-.22.06-.23.081-.21.098-.27.113-.301.07-.309.09-.398.07-.402.06-.461.097-.528.121-.57.18-.652.191-.739.23-.8.25-.88.302-.968.386-1.031.442-1.09.539-1.121.562-1.11.598-1.14.621-1.14.602-1.169.59-1.223.597-1.25.621-1.296.66-1.313.72-1.36.741-1.39.73-1.39.77-1.387.77-1.352.77-1.32.757-1.281.762-1.2.738-1.097.711-.953.672-.79.559-.66.468-.5.371-.379.282-.23.21-.11.149-.038.09.078.07.11-.05.151-.09.188-.168.21-.23.29-.302.281-.379"/></svg>
